<svg width="170" height="95" viewBox="0 0 170 95" fill="none" xmlns="http://www.w3.org/2000/svg">
<path d="M29.9574 69.0315C29.3971 70.0301 28.8878 70.9007 28.3785 71.6432C27.8946 72.3858 27.4107 73.0259 26.9778 73.5892C27.7673 74.5622 28.5567 75.5352 29.3717 76.5082C30.1611 77.4812 31.0015 78.403 31.842 79.2991C32.6824 80.1953 33.5737 81.0403 34.4905 81.8084C35.4073 82.5766 36.4005 83.2679 37.4446 83.8312C38.4888 84.3945 39.6348 84.8554 40.8317 85.1883C42.0287 85.5212 43.3275 85.6748 44.7536 85.6748C46.2052 85.6748 47.3767 85.4956 48.2935 85.1371C49.2103 84.7786 49.9234 84.3433 50.4072 83.78C50.8911 83.2423 51.1967 82.6278 51.2986 81.9877C51.4004 81.3475 51.375 80.7074 51.1712 80.0929C50.993 79.4784 50.6874 78.9407 50.229 78.4542C49.796 77.9677 49.2612 77.6348 48.6755 77.43C48.0643 77.2507 47.4021 77.2251 46.6891 77.4043C45.9505 77.5836 45.212 78.0189 44.4735 78.7358L44.3461 78.5054C44.6263 78.2237 44.9573 77.9677 45.3139 77.7116C45.6449 77.5068 46.0269 77.3275 46.4599 77.1739C46.8928 77.0203 47.4021 76.9179 47.9624 76.9179C48.8792 76.9179 49.6942 77.1483 50.3818 77.5836C51.0694 78.0189 51.6042 78.5822 51.9607 79.2479C52.3172 79.9136 52.47 80.6306 52.4191 81.4243C52.3682 82.2181 52.0626 82.935 51.5278 83.6008C50.9675 84.2665 50.1526 84.8298 49.0066 85.2651C47.886 85.7004 46.4344 85.9308 44.6263 85.9308C42.9964 85.9308 41.5193 85.7772 40.1696 85.4699C38.8198 85.1627 37.5974 84.7274 36.4769 84.1897C35.3564 83.652 34.3122 83.0119 33.3954 82.2693C32.4532 81.5268 31.5873 80.733 30.7469 79.8624C29.9319 78.9919 29.1425 78.0957 28.4294 77.1739C27.6909 76.2265 27.0033 75.3047 26.2902 74.3573C25.7554 74.9463 25.297 75.3816 24.8641 75.7144C24.4311 76.0473 24.0746 76.2777 23.7435 76.4314C23.4124 76.585 23.1578 76.6618 22.9286 76.6874C22.7248 76.713 22.572 76.713 22.4702 76.6874C22.4447 76.6874 22.4447 76.6874 22.4192 76.6618H22.3938C22.2919 76.6362 22.19 76.5594 22.1136 76.457C22.0372 76.3545 21.9863 76.2265 21.9863 76.0985C21.9863 75.9449 22.0372 75.7912 22.1646 75.6888C22.2664 75.5608 22.4192 75.5096 22.572 75.5096C22.7248 75.5096 22.8522 75.5608 22.9795 75.6888C23.0814 75.7912 23.1578 75.9449 23.1578 76.0985C23.6162 76.0217 24.1001 75.7912 24.6094 75.4328C25.1187 75.0487 25.6281 74.5878 26.1119 74.0501C25.5771 73.3587 25.0678 72.6674 24.533 72.0017C23.9982 71.3359 23.4634 70.6702 22.9286 70.0301C22.1391 71.3616 21.2987 72.5906 20.4074 73.7172C19.516 74.8438 18.5738 75.8168 17.5551 76.6362C16.5364 77.4556 15.4414 78.0957 14.2699 78.5822C13.0984 79.0431 11.8251 79.2735 10.4499 79.2735C8.64172 79.2735 7.06278 79.0431 5.73851 78.6078C4.41424 78.1725 3.31917 77.5836 2.4533 76.841C1.58743 76.1241 0.950759 75.2791 0.543291 74.3573C0.135823 73.4356 -0.0424446 72.4882 0.00848892 71.5152C0.0594225 70.5422 0.339557 69.5948 0.848892 68.673C1.35823 67.7512 2.09676 66.9063 3.0645 66.1893C4.03224 65.4724 5.20371 64.8835 6.60438 64.4226C8.00505 63.9873 9.63493 63.7568 11.4685 63.7568C12.5891 63.7568 13.6332 63.8593 14.6009 64.0897C15.5687 64.3202 16.511 64.6274 17.3768 65.0115C18.2427 65.4212 19.0831 65.8821 19.8726 66.4454C20.662 67.0087 21.4006 67.5976 22.1391 68.2633C22.8522 66.8551 23.5398 65.3956 24.2019 63.8593C24.8641 62.323 25.5262 60.8123 26.2138 59.2503C26.8759 57.714 27.5635 56.2033 28.2766 54.6926C28.9642 53.2076 29.7027 51.7737 30.4667 50.4166C31.2307 49.0595 32.0457 47.8305 32.8861 46.6783C33.752 45.526 34.6688 44.5274 35.6365 43.7081C36.6297 42.8631 37.6738 42.223 38.7944 41.7365C39.9149 41.25 41.1628 41.0195 42.4871 41.0195C43.9387 41.0195 45.1611 41.1988 46.1288 41.5572C47.122 41.9157 47.886 42.3766 48.4463 42.9399C49.0066 43.5032 49.3886 44.169 49.5668 44.9115C49.7451 45.654 49.7706 46.3966 49.6687 47.1648C49.5414 47.9329 49.2867 48.6755 48.9047 49.418C48.4972 50.1605 48.0134 50.8007 47.4276 51.3896C46.8419 51.9529 46.1543 52.4394 45.3903 52.7723C44.6263 53.1307 43.8113 53.31 42.9455 53.31C42.0032 53.31 41.2137 53.1819 40.5261 52.9259C39.8385 52.6698 39.3037 52.337 38.8962 51.8761C38.4888 51.4408 38.2341 50.9031 38.1322 50.263C38.0304 49.6484 38.0813 48.9571 38.285 48.189L38.3869 48.2914C38.2086 49.1876 38.2341 49.9813 38.4378 50.647C38.5397 50.9543 38.6925 51.236 38.8708 51.5176C39.049 51.7993 39.3292 52.0553 39.6603 52.2602C39.9913 52.4906 40.4243 52.6698 40.9336 52.7979C41.4429 52.9259 42.0541 53.0027 42.7672 52.9771C43.5821 52.9515 44.3461 52.7979 45.0847 52.465C45.7977 52.1321 46.4344 51.6968 46.9947 51.1335C47.555 50.5702 48.0134 49.9557 48.3699 49.2388C48.7264 48.5474 48.9556 47.8305 49.0575 47.0879C49.1594 46.3454 49.1084 45.6541 48.9302 44.9371C48.7519 44.2458 48.3699 43.6312 47.8351 43.0679C47.3003 42.5302 46.5617 42.0693 45.6449 41.7365C44.7281 41.4036 43.5821 41.2244 42.2324 41.2244C41.1119 41.2244 40.0677 41.4804 39.1254 41.9669C38.1577 42.4534 37.2664 43.1448 36.426 44.0153C35.5856 44.8859 34.7706 45.9357 34.0321 47.1135C33.2936 48.317 32.555 49.6228 31.842 51.0055C31.1289 52.4138 30.4413 53.8733 29.7791 55.4352C29.117 56.9715 28.4294 58.559 27.7418 60.1209C27.0542 61.7084 26.3411 63.2703 25.6281 64.8067C24.8895 66.343 24.151 67.828 23.3615 69.2363C23.9727 69.8508 24.5585 70.491 25.1187 71.1311C25.679 71.7968 26.2393 72.4626 26.825 73.1539C27.2325 72.6418 27.6145 72.1297 27.9965 71.6176C28.353 71.1055 28.6841 70.619 28.9642 70.2093C29.2953 69.7228 29.5754 69.2363 29.8555 68.7498L29.9574 69.0315ZM10.5008 79.0175C11.7487 79.0175 12.8947 78.7614 13.9643 78.2493C15.0339 77.7372 16.0271 77.0203 16.9439 76.1241C17.8607 75.2279 18.7266 74.1525 19.5415 72.8979C20.3564 71.6688 21.1204 70.3373 21.859 68.9035C21.1968 68.2121 20.4838 67.5976 19.7452 67.0343C19.0067 66.471 18.2172 65.9845 17.3514 65.5748C16.511 65.1651 15.5942 64.8323 14.6009 64.6274C13.6077 64.397 12.5381 64.2945 11.3921 64.2945C9.7368 64.2945 8.25972 64.4994 7.01185 64.9347C5.76398 65.3444 4.69437 65.9077 3.85397 66.599C2.9881 67.2903 2.35143 68.0841 1.89303 68.9547C1.46009 69.8252 1.20543 70.747 1.15449 71.6688C1.10356 72.5906 1.28183 73.4868 1.63836 74.3829C1.9949 75.2535 2.58063 76.0473 3.34464 76.7386C4.10864 77.43 5.10184 77.9933 6.29878 78.403C7.52119 78.8126 8.89639 79.0175 10.5008 79.0175Z" fill="#F06BA8"/>
<path d="M36.5286 65.7029C36.0193 66.9831 35.5863 68.1866 35.2043 69.262C35.0515 69.7229 34.8987 70.1582 34.7714 70.6191C34.6186 71.0799 34.5167 71.4896 34.4148 71.8737C34.313 72.2578 34.262 72.565 34.2366 72.8467C34.2111 73.1284 34.2111 73.3076 34.2875 73.41C34.3384 73.5124 34.4403 73.538 34.5676 73.4612C34.695 73.41 34.8478 73.282 35.0006 73.1284C35.1534 72.9491 35.3317 72.7443 35.5099 72.4882C35.6882 72.2322 35.8919 71.9761 36.0702 71.6945C36.5031 71.0543 36.987 70.2862 37.4963 69.39L37.6746 69.5949C37.1398 70.491 36.6305 71.3104 36.1211 72.0273C35.9174 72.3346 35.6882 72.6419 35.4335 72.9491C35.2043 73.2564 34.9496 73.5124 34.7459 73.7685C34.5167 73.9989 34.2875 74.2038 34.0838 74.3574C33.8546 74.511 33.6763 74.6135 33.498 74.6391C33.2943 74.6647 33.0906 74.6391 32.9378 74.5878C32.785 74.5366 32.6576 74.383 32.6067 74.1782C32.5303 73.9733 32.5048 73.6917 32.5303 73.3332C32.5558 72.9747 32.6067 72.5394 32.7086 72.0017C32.2756 72.7955 31.7918 73.41 31.2824 73.8965C30.7731 74.383 30.2892 74.6391 29.8308 74.6391C29.5252 74.6391 29.2706 74.511 29.0923 74.2806C28.914 74.0501 28.7867 73.7173 28.7358 73.3332C28.6848 72.9235 28.6848 72.4626 28.7612 71.9249C28.8376 71.3872 28.965 70.7983 29.1942 70.1838C29.3979 69.5693 29.6526 69.0059 29.9582 68.4426C30.2638 67.9049 30.5694 67.4184 30.9004 67.0343C31.2315 66.6247 31.588 66.3174 31.9191 66.087C32.2756 65.8565 32.5812 65.7285 32.8868 65.7285C33.2943 65.7285 33.5744 65.9077 33.7782 66.2918C33.9564 66.6759 34.0583 67.188 34.0328 67.8025C34.1602 67.4696 34.2875 67.1368 34.4148 66.7783C34.5422 66.4198 34.695 66.0614 34.8478 65.7029H36.5286ZM30.6203 73.9477C30.7476 73.9477 30.9004 73.8709 31.0787 73.7429C31.257 73.6149 31.4607 73.4356 31.6644 73.1796C31.8682 72.9491 32.0719 72.6675 32.3011 72.3346C32.5048 72.0017 32.7086 71.6433 32.8868 71.2592C32.9887 70.8751 33.0906 70.4654 33.2434 70.0045C33.3707 69.5436 33.549 69.0571 33.7527 68.5194C33.8291 67.8793 33.8291 67.3672 33.7272 66.9575C33.6254 66.5478 33.4471 66.343 33.2179 66.343C33.0651 66.343 32.8868 66.4454 32.7086 66.6503C32.5303 66.8551 32.3266 67.1112 32.1228 67.4696C31.9191 67.8025 31.7154 68.2122 31.5116 68.6731C31.3079 69.134 31.1296 69.6205 30.9514 70.1582C30.7731 70.6959 30.6203 71.1824 30.5184 71.6433C30.4166 72.1042 30.3402 72.5138 30.2892 72.8467C30.2638 73.1796 30.2638 73.4612 30.3147 73.6661C30.3402 73.8453 30.442 73.9477 30.6203 73.9477Z" fill="#F06BA8"/>
<path d="M40.0176 65.7026C39.6356 67.1877 39.3554 68.4936 39.1517 69.6458C39.0753 70.1323 38.9989 70.6188 38.948 71.1053C38.897 71.5662 38.8716 72.0014 38.897 72.3599C38.9225 72.7184 38.948 73.0257 39.0498 73.2561C39.1262 73.4865 39.279 73.589 39.4828 73.589C39.661 73.589 39.8393 73.5121 40.0685 73.3329C40.2977 73.1537 40.5269 72.9488 40.7561 72.6672C40.9853 72.3855 41.24 72.0783 41.4692 71.6942C41.6984 71.3357 41.9276 70.926 42.1568 70.5164C41.8766 70.3883 41.622 70.1835 41.4182 69.8762C41.2145 69.5946 41.0362 69.2617 40.9344 68.9032C40.8325 68.5448 40.7561 68.1863 40.7816 67.8022C40.7816 67.4181 40.858 67.0853 41.0108 66.778C41.1636 66.4708 41.3928 66.2147 41.6984 66.0099C42.004 65.805 42.4114 65.7026 42.8953 65.7026C43.2009 65.7026 43.4301 65.805 43.532 66.0355C43.6593 66.2659 43.7102 66.5476 43.6848 66.9316C43.6593 67.2901 43.5829 67.7254 43.4301 68.1863C43.2773 68.6728 43.099 69.1593 42.8444 69.6714C43.099 69.825 43.3792 69.825 43.7357 69.7226C44.0668 69.6202 44.4233 69.3129 44.8053 68.8264L44.9836 68.9544C44.4997 69.6714 44.0413 70.1579 43.6084 70.3883C43.1754 70.6188 42.768 70.67 42.386 70.5676C42.0804 71.1053 41.7748 71.5918 41.4182 72.1039C41.0617 72.5904 40.7052 73.0513 40.3486 73.4353C39.9921 73.8194 39.6101 74.1267 39.2536 74.3315C38.897 74.5619 38.566 74.6644 38.2349 74.6388C37.9038 74.6132 37.6492 74.4851 37.4709 74.2035C37.2926 73.9218 37.1908 73.589 37.1398 73.1537C37.0889 72.7184 37.0889 72.2575 37.1398 71.7198C37.1908 71.1821 37.2417 70.6444 37.3436 70.0811C37.5728 68.7752 37.9293 67.3157 38.4386 65.677H40.0176V65.7026ZM42.7425 66.1635C42.4114 66.1635 42.1568 66.2915 42.004 66.5732C41.8512 66.8548 41.7748 67.1621 41.7748 67.5206C41.7748 67.879 41.8512 68.2631 41.9785 68.6472C42.1313 69.0313 42.3096 69.3129 42.5642 69.5434C42.768 69.1081 42.9208 68.6984 43.0481 68.2887C43.1754 67.879 43.2518 67.5206 43.3028 67.2133C43.3282 66.906 43.3028 66.65 43.2264 66.4452C43.15 66.2659 42.9717 66.1635 42.7425 66.1635Z" fill="#F06BA8"/>
<path d="M51.4776 65.7029C50.9683 66.9831 50.5354 68.1866 50.1534 69.262C50.0006 69.7229 49.8478 70.1582 49.7204 70.6191C49.5676 71.0799 49.4658 71.4896 49.3639 71.8737C49.262 72.2578 49.2111 72.565 49.1856 72.8467C49.1602 73.1284 49.1602 73.3076 49.2366 73.41C49.2875 73.5124 49.3894 73.538 49.5167 73.4612C49.644 73.41 49.7968 73.282 49.9496 73.1284C50.1024 72.9491 50.2807 72.7443 50.459 72.4882C50.6372 72.2322 50.841 71.9761 51.0192 71.6945C51.4522 71.0543 51.936 70.2862 52.4454 69.39L52.6236 69.5949C52.0888 70.491 51.5795 71.3104 51.0702 72.0273C50.8664 72.3346 50.6372 72.6419 50.3826 72.9491C50.1534 73.2564 49.8987 73.5124 49.695 73.7685C49.4658 73.9989 49.2366 74.2038 49.0328 74.3574C48.8036 74.511 48.6254 74.6135 48.4471 74.6391C48.2434 74.6647 48.0396 74.6391 47.8868 74.5878C47.734 74.5366 47.6067 74.383 47.5557 74.1782C47.4793 73.9733 47.4539 73.6917 47.4793 73.3332C47.5048 72.9747 47.5557 72.5394 47.6576 72.0017C47.2247 72.7955 46.7408 73.41 46.2315 73.8965C45.7221 74.383 45.2383 74.6391 44.7799 74.6391C44.4743 74.6391 44.2196 74.511 44.0413 74.2806C43.8631 74.0501 43.7357 73.7173 43.6848 73.3332C43.6339 72.9235 43.6339 72.4626 43.7103 71.9249C43.7867 71.3872 43.914 70.7983 44.1432 70.1838C44.3469 69.5693 44.6016 69.0059 44.9072 68.4426C45.2128 67.9049 45.5184 67.4184 45.8495 67.0343C46.1805 66.6247 46.5371 66.3174 46.8681 66.087C47.2247 65.8565 47.5303 65.7285 47.8359 65.7285C48.2434 65.7285 48.5235 65.9077 48.7272 66.2918C48.9055 66.6759 49.0074 67.188 48.9819 67.8025C49.1092 67.4696 49.2366 67.1368 49.3639 66.7783C49.4912 66.4198 49.644 66.0614 49.7968 65.7029H51.4776ZM45.5693 73.9477C45.6967 73.9477 45.8495 73.8709 46.0277 73.7429C46.206 73.6149 46.4097 73.4356 46.6135 73.1796C46.8172 72.9491 47.0209 72.6675 47.2501 72.3346C47.4539 72.0017 47.6576 71.6433 47.8359 71.2592C47.9378 70.8751 48.0396 70.4654 48.1924 70.0045C48.3198 69.5436 48.498 69.0571 48.7018 68.5194C48.7782 67.8793 48.7782 67.3672 48.6763 66.9575C48.5744 66.5478 48.3962 66.343 48.167 66.343C48.0141 66.343 47.8359 66.4454 47.6576 66.6503C47.4793 66.8551 47.2756 67.1112 47.0719 67.4696C46.8681 67.8025 46.6644 68.2122 46.4607 68.6731C46.2569 69.134 46.0787 69.6205 45.9004 70.1582C45.7221 70.6959 45.5693 71.1824 45.4675 71.6433C45.3656 72.1042 45.2892 72.5138 45.2383 72.8467C45.2128 73.1796 45.2128 73.4612 45.2637 73.6661C45.2892 73.8453 45.4165 73.9477 45.5693 73.9477Z" fill="#F06BA8"/>
<path d="M64.6694 64.0132H56.2654C56.0616 64.3461 55.8324 64.679 55.6287 65.0118C55.425 65.3191 55.2212 65.652 55.0175 65.9848C54.7374 66.8042 54.5336 67.4955 54.3299 68.11C54.1516 68.7246 54.0243 69.1855 53.9224 69.4671C53.7187 70.184 53.5659 70.773 53.464 71.2595C53.3622 71.746 53.3367 72.13 53.3367 72.4629C53.3622 72.7702 53.4131 73.0262 53.515 73.1798C53.6168 73.3335 53.7951 73.4615 53.9988 73.5383C54.1516 73.5895 54.3044 73.5895 54.5082 73.4871C54.7119 73.4103 54.9156 73.2823 55.1448 73.103C55.374 72.9238 55.5778 72.719 55.8324 72.4629C56.0616 72.2069 56.2908 71.9508 56.4946 71.6691C57.0039 71.029 57.5387 70.2865 58.0735 69.4671L58.2008 69.672C57.5387 70.6706 56.953 71.4899 56.4436 72.13C55.9088 72.7702 55.425 73.2823 54.992 73.6407C54.5591 73.9992 54.1262 74.2809 53.7696 74.4089C53.3876 74.5625 53.0311 74.6393 52.6746 74.6393C52.318 74.6393 52.0634 74.4857 51.9106 74.204C51.7578 73.9224 51.6559 73.5639 51.6304 73.1286C51.6049 72.719 51.6049 72.2581 51.6813 71.7972C51.7577 71.3363 51.8342 70.901 51.9615 70.5425C52.0124 70.4401 52.0888 70.1841 52.2162 69.8C52.3435 69.4159 52.5218 68.955 52.7255 68.3661C52.9292 67.8028 53.1584 67.137 53.4131 66.3945C53.6932 65.652 53.9734 64.8582 54.279 64.0132H48.3707V63.706H54.4063C54.8392 62.6049 55.2722 61.4271 55.756 60.2237C56.2399 59.0202 56.7238 57.8424 57.2076 56.6902C57.6915 55.5379 58.2008 54.4625 58.7102 53.4383C59.2195 52.4141 59.6779 51.5436 60.1363 50.801C60.5947 50.0585 61.0022 49.5208 61.3842 49.1367C61.7662 48.7526 62.0973 48.6246 62.3774 48.7526C62.7594 48.9318 62.9631 49.2903 63.0141 49.8024C63.065 50.3145 62.9631 50.9546 62.7594 51.6972C62.5302 52.4397 62.2246 53.2847 61.7662 54.2321C61.3333 55.1795 60.8239 56.1781 60.2637 57.2023C59.7034 58.2521 59.0667 59.3275 58.4046 60.4285C57.7424 61.5295 57.0803 62.6306 56.4182 63.6804H64.6439V64.0132H64.6694ZM55.3231 65.0374C55.425 64.8582 55.5523 64.7046 55.6287 64.5253C55.7306 64.3717 55.8324 64.1925 55.9343 64.0132H55.6287L55.3231 65.0374ZM62.3265 49.2647C62.1227 49.1367 61.8681 49.2647 61.5625 49.6232C61.2569 49.9816 60.9258 50.545 60.5438 51.2619C60.1618 51.9788 59.7798 52.8238 59.3723 53.8224C58.9648 54.821 58.5574 55.8708 58.1244 56.9974C57.717 58.1241 57.3095 59.2507 56.902 60.4029C56.4946 61.5551 56.1126 62.6818 55.756 63.7316H56.138C56.7747 62.7074 57.4368 61.632 58.0735 60.5565C58.7102 59.4811 59.2959 58.4313 59.8562 57.4327C60.4165 56.4085 60.9003 55.4611 61.3333 54.5393C61.7662 53.6432 62.0973 52.8238 62.3519 52.0813C62.6066 51.3643 62.7339 50.7498 62.7339 50.2633C62.7594 49.7768 62.6066 49.4439 62.3265 49.2647Z" fill="#F06BA8"/>
<path d="M63.2432 65.8309C63.6507 66.0101 63.8544 66.2918 63.9054 66.6502C63.9563 67.0087 63.8799 67.4184 63.6762 67.8537C63.4724 68.289 63.1923 68.7243 62.8358 69.1595C62.4792 69.5948 62.0717 69.9533 61.6388 70.235C61.2059 70.5166 60.7729 70.7215 60.3655 70.7983C59.9325 70.8751 59.576 70.7983 59.2704 70.5422C59.1431 71.0031 59.0412 71.4384 58.9903 71.8481C58.9393 72.2578 58.9139 72.6418 58.9648 72.9747C59.0157 73.3076 59.0921 73.5636 59.2449 73.7685C59.3977 73.9733 59.6015 74.0757 59.8816 74.0757C60.0853 74.1013 60.34 74.0245 60.5947 73.8965C60.8493 73.7429 61.1295 73.5636 61.4096 73.3332C61.6897 73.1027 61.9699 72.8211 62.25 72.5138C62.5301 72.2066 62.8103 71.8993 63.0649 71.5664C63.6762 70.8239 64.3383 69.9533 65.0004 68.9803L65.1787 69.1595C64.2619 70.5678 63.3706 71.7201 62.4792 72.6418C62.0972 73.0515 61.7152 73.41 61.3077 73.7172C60.9003 74.0245 60.4928 74.2806 60.1108 74.4342C59.7033 74.5878 59.3213 74.639 58.9648 74.5878C58.6083 74.5366 58.2517 74.3062 57.9461 73.9477C57.5387 73.4868 57.3349 72.9235 57.3349 72.2834C57.3095 71.6432 57.4368 70.9775 57.6915 70.3118C57.9461 69.646 58.2772 68.9803 58.7356 68.3402C59.1685 67.7001 59.6779 67.1624 60.1872 66.7271C60.722 66.2918 61.2568 65.9589 61.7916 65.7797C62.3009 65.626 62.7848 65.626 63.2432 65.8309ZM62.5301 65.9589C62.2755 65.8821 61.9953 65.9589 61.7152 66.1894C61.4096 66.4198 61.1295 66.7271 60.8239 67.1367C60.5437 67.5464 60.2636 68.0073 60.0089 68.545C59.7543 69.0827 59.5251 69.6204 59.3468 70.1837C59.576 70.491 59.8816 70.5934 60.1872 70.5166C60.5183 70.4398 60.8239 70.2606 61.1549 69.9789C61.4605 69.6972 61.7661 69.3388 62.0463 68.9035C62.3264 68.4682 62.5301 68.0585 62.6829 67.6488C62.8357 67.2392 62.9121 66.8807 62.8867 66.5734C62.9121 66.2662 62.7848 66.0613 62.5301 65.9589Z" fill="#F06BA8"/>
<path d="M66.4521 67.3925C66.1974 67.751 65.9173 68.1607 65.5862 68.6216C65.2551 69.0825 64.975 69.4921 64.7203 69.8762H64.4147C64.7458 69.3385 65.0769 68.8776 65.357 68.4679C65.6371 68.0583 65.8918 67.6998 66.1465 67.4181H65.9682C65.5607 67.4181 65.2551 67.3157 65.0259 67.1109C64.8222 66.906 64.7203 66.65 64.7203 66.3939C64.7203 66.1123 64.8477 65.8818 65.1023 65.6514C65.357 65.4209 65.739 65.3185 66.2483 65.2673C66.7831 65.2417 67.0633 65.4209 67.1397 65.7794C67.2161 66.1379 67.0887 66.5476 66.7577 66.9828L68.464 67.0084H68.4894C69.3298 67.0084 69.8392 67.2645 69.992 67.8022C70.1448 68.3399 69.9156 69.2617 69.3553 70.5932C69.2789 70.798 69.177 71.0797 69.0497 71.4125C68.9224 71.7454 68.846 72.0526 68.7696 72.3599C68.7186 72.6672 68.6932 72.9232 68.7186 73.1281C68.7441 73.3585 68.846 73.4609 69.0242 73.4865C69.1261 73.4865 69.2534 73.4353 69.4062 73.3073C69.559 73.2049 69.7118 73.0512 69.8901 72.8464C70.0684 72.6672 70.2466 72.4367 70.4249 72.2063C70.6032 71.9758 70.7814 71.7198 70.9852 71.4637C71.4181 70.8748 71.851 70.1835 72.3094 69.4153L72.4622 69.6202C71.9274 70.5676 71.3926 71.4125 70.8324 72.1551C70.6032 72.4623 70.3485 72.7696 70.0938 73.0768C69.8392 73.3841 69.5845 73.6402 69.3044 73.8962C69.0242 74.1267 68.7696 74.3315 68.4894 74.4595C68.2093 74.6132 67.9546 74.6644 67.7254 74.6644C67.5217 74.6644 67.3689 74.6132 67.2925 74.4851C67.1906 74.3571 67.1397 74.2035 67.1142 73.9986C67.0887 73.7938 67.0887 73.589 67.1397 73.3329C67.1651 73.0768 67.2161 72.8208 67.2925 72.5647C67.4453 71.9502 67.7 71.2589 68.0056 70.4651C68.2348 69.9018 68.4385 69.4153 68.6168 69.0312C68.795 68.6472 68.9224 68.3399 68.9478 68.0839C68.9733 67.8534 68.9224 67.6742 68.795 67.5718C68.6422 67.4693 68.3876 67.4181 67.9801 67.4181H66.4521V67.3925ZM66.4266 65.5746C66.2229 65.5746 66.0446 65.6514 65.9173 65.7794C65.7645 65.933 65.6881 66.0867 65.6626 66.2659C65.6371 66.4451 65.6881 66.5988 65.7899 66.7524C65.8918 66.906 66.121 66.9572 66.4521 66.9572C66.6049 66.7524 66.7067 66.5476 66.7577 66.3939C66.8086 66.2147 66.8341 66.0867 66.8086 65.9586C66.7831 65.8306 66.7577 65.7538 66.6813 65.677C66.5794 65.6258 66.503 65.5746 66.4266 65.5746Z" fill="#F06BA8"/>
<path d="M79.2619 65.7029C78.7525 66.9831 78.3196 68.1866 77.9376 69.262C77.7848 69.7229 77.632 70.1582 77.5047 70.6191C77.3519 71.0799 77.25 71.4896 77.1481 71.8737C77.0463 72.2578 76.9953 72.565 76.9699 72.8467C76.9444 73.1284 76.9444 73.3076 77.0208 73.41C77.0717 73.5124 77.1736 73.538 77.3009 73.4612C77.4283 73.41 77.5811 73.282 77.7339 73.1284C77.8867 72.9491 78.0649 72.7443 78.2432 72.4882C78.4215 72.2322 78.6252 71.9761 78.8035 71.6945C79.2364 71.0543 79.7203 70.2862 80.2296 69.39L80.4079 69.5949C79.8731 70.491 79.3637 71.3104 78.8544 72.0273C78.6507 72.3346 78.4215 72.6419 78.1668 72.9491C77.9376 73.2564 77.6829 73.5124 77.4792 73.7685C77.25 73.9989 77.0208 74.2038 76.8171 74.3574C76.5879 74.511 76.4096 74.6135 76.2313 74.6391C76.0276 74.6647 75.8239 74.6391 75.6711 74.5878C75.5183 74.5366 75.3909 74.383 75.34 74.1782C75.2636 73.9733 75.2381 73.6917 75.2636 73.3332C75.2891 72.9747 75.34 72.5394 75.4419 72.0017C75.0089 72.7955 74.5251 73.41 74.0157 73.8965C73.5064 74.383 73.0225 74.6391 72.5641 74.6391C72.2585 74.6391 72.0039 74.511 71.8256 74.2806C71.6473 74.0501 71.52 73.7173 71.4691 73.3332C71.4181 72.9235 71.4181 72.4626 71.4945 71.9249C71.5709 71.3872 71.6983 70.7983 71.9275 70.1838C72.1312 69.5693 72.3859 69.0059 72.6915 68.4426C72.9971 67.9049 73.3027 67.4184 73.6337 67.0343C73.9648 66.6247 74.3213 66.3174 74.6524 66.087C75.0089 65.8565 75.3145 65.7285 75.6201 65.7285C76.0276 65.7285 76.3077 65.9077 76.5115 66.2918C76.6897 66.6759 76.7916 67.188 76.7661 67.8025C76.8935 67.4696 77.0208 67.1368 77.1481 66.7783C77.2755 66.4198 77.4283 66.0614 77.5811 65.7029H79.2619ZM73.3536 73.9477C73.4809 73.9477 73.6337 73.8709 73.812 73.7429C73.9903 73.6149 74.194 73.4356 74.3977 73.1796C74.6015 72.9491 74.8052 72.6675 75.0344 72.3346C75.2381 72.0017 75.4419 71.6433 75.6201 71.2592C75.722 70.8751 75.8239 70.4654 75.9767 70.0045C76.104 69.5436 76.2823 69.0571 76.486 68.5194C76.5624 67.8793 76.5624 67.3672 76.4605 66.9575C76.3587 66.5478 76.1804 66.343 75.9512 66.343C75.7984 66.343 75.6201 66.4454 75.4419 66.6503C75.2636 66.8551 75.0599 67.1112 74.8561 67.4696C74.6524 67.8025 74.4487 68.2122 74.2449 68.6731C74.0412 69.134 73.8629 69.6205 73.6847 70.1582C73.5064 70.6959 73.3536 71.1824 73.2517 71.6433C73.1499 72.1042 73.0735 72.5138 73.0225 72.8467C72.9971 73.1796 72.9971 73.4612 73.048 73.6661C73.0735 73.8453 73.1753 73.9477 73.3536 73.9477Z" fill="#F06BA8"/>
<path d="M119.117 46.4736C119.703 45.2958 120.314 44.2204 120.951 43.2474C121.588 42.2744 122.224 41.4806 122.861 40.8661C123.498 40.2516 124.16 39.8931 124.796 39.7395C125.433 39.6114 126.07 39.7907 126.706 40.2772C127.267 40.7381 127.496 41.199 127.394 41.6599C127.292 42.1207 126.961 42.5816 126.401 43.0425C125.841 43.5034 125.102 43.9899 124.211 44.4508C123.294 44.9373 122.326 45.3982 121.282 45.8847C120.926 46.7297 120.518 47.6258 120.136 48.5988C119.729 49.5718 119.321 50.596 118.888 51.697C119.219 51.2105 119.627 50.7497 120.06 50.2888C120.493 49.8279 121.002 49.4182 121.537 49.0597C122.072 48.7012 122.683 48.4196 123.345 48.2148C124.007 48.0099 124.72 47.9075 125.484 47.9075C126.63 47.9075 127.547 48.1635 128.234 48.7012C128.922 49.239 129.381 49.9047 129.61 50.724C129.839 51.5434 129.813 52.4396 129.559 53.4126C129.304 54.3856 128.82 55.3074 128.107 56.2035C127.394 57.0741 126.452 57.8679 125.28 58.5336C124.109 59.1993 122.683 59.6346 121.027 59.8138C122.708 59.9419 124.185 60.2235 125.433 60.6332C126.681 61.0685 127.751 61.6062 128.591 62.2463C129.457 62.8865 130.119 63.629 130.603 64.4484C131.087 65.2677 131.367 66.1383 131.494 67.0345C131.622 67.9307 131.545 68.8524 131.316 69.7998C131.087 70.7472 130.705 71.6434 130.17 72.514C130.883 72.2323 131.545 71.797 132.182 71.2337C132.819 70.6704 133.404 69.8766 133.939 68.9293L134.168 69.0573C133.557 70.1583 132.895 71.0289 132.156 71.669C131.418 72.3091 130.628 72.77 129.813 73.0517C129.228 73.871 128.515 74.6392 127.674 75.3561C126.808 76.0731 125.841 76.6876 124.72 77.2253C123.6 77.763 122.377 78.1727 121.027 78.4799C119.678 78.7872 118.226 78.9408 116.647 78.9408C114.559 78.9408 112.7 78.736 111.07 78.3263C109.44 77.9166 108.014 77.3533 106.791 76.662C105.773 77.3789 104.601 77.9422 103.277 78.3007C101.953 78.6848 100.399 78.864 98.6421 78.864C96.4774 78.864 94.6183 78.5824 93.0649 78.0447C91.5114 77.4813 90.2381 76.7644 89.2449 75.8426C88.2516 74.9464 87.5386 73.8966 87.1056 72.7444C86.6727 71.5922 86.469 70.4143 86.5199 69.1853C86.5708 67.9819 86.8764 66.7784 87.4367 65.6262C87.997 64.474 88.761 63.4242 89.7542 62.528C90.7474 61.6318 91.9698 60.8893 93.3705 60.326C94.7966 59.7626 96.401 59.5066 98.2092 59.5066C99.457 59.5066 100.552 59.6346 101.494 59.8907C102.437 60.1467 103.226 60.4796 103.863 60.8893C104.499 61.2989 104.983 61.7598 105.314 62.2719C105.645 62.784 105.875 63.3217 105.951 63.8851H106.155C107.046 63.8851 107.963 64.0387 108.905 64.3715C109.847 64.6788 110.841 65.0885 111.859 65.6006C112.139 64.8324 112.42 64.0387 112.725 63.1937C113.031 62.3744 113.336 61.5038 113.667 60.6076L113.718 60.5564C113.922 59.9163 114.177 59.0713 114.533 58.0215C114.864 56.9973 115.272 55.8707 115.705 54.6416C116.138 53.4382 116.622 52.1579 117.156 50.8521C117.691 49.5462 118.252 48.2916 118.837 47.0625L119.117 46.4736ZM98.693 78.608C100.323 78.608 101.749 78.4031 102.921 78.0191C104.092 77.635 105.136 77.0205 106.078 76.2267C105.238 75.689 104.525 75.1257 103.914 74.4855C103.303 73.8454 102.793 73.2053 102.411 72.514C102.004 71.8482 101.724 71.1825 101.52 70.4912C101.342 69.7998 101.24 69.1597 101.265 68.5196C101.189 68.5452 101.138 68.5452 101.087 68.5452C101.036 68.5452 100.96 68.5452 100.909 68.5452C100.017 68.5452 99.3042 68.4428 98.7949 68.2379C98.2601 68.0331 97.8781 67.8026 97.6489 67.4954C97.3942 67.1881 97.2669 66.8552 97.2414 66.4968C97.216 66.1383 97.2669 65.7798 97.3942 65.4726C97.5216 65.1397 97.6744 64.858 97.9036 64.6276C98.1073 64.3972 98.3365 64.2179 98.5402 64.1667L98.5912 64.2691C98.4129 64.3203 98.2346 64.4484 98.0564 64.6532C97.8781 64.858 97.7508 65.0885 97.6489 65.3701C97.547 65.6518 97.5216 65.9335 97.5725 66.2407C97.598 66.548 97.7508 66.8296 98.0054 67.0857C98.2601 67.3417 98.6166 67.5466 99.126 67.7258C99.6098 67.905 100.272 67.9819 101.112 67.9819H101.367C101.494 66.9065 101.902 66.0103 102.564 65.2677C103.252 64.5252 104.194 64.0899 105.442 63.9363C105.416 63.4242 105.263 62.9121 104.983 62.4C104.703 61.9135 104.27 61.4526 103.71 61.0685C103.15 60.6588 102.411 60.3516 101.494 60.1211C100.603 59.8907 99.5334 59.7626 98.2601 59.7626C96.5029 59.7626 94.9749 60.0443 93.6251 60.582C92.3009 61.1197 91.1803 61.8366 90.289 62.7328C89.3976 63.629 88.71 64.6276 88.2771 65.7542C87.8187 66.8808 87.5895 68.0331 87.5895 69.2109C87.5895 70.3887 87.8187 71.541 88.2771 72.6676C88.7355 73.7942 89.4231 74.7928 90.3654 75.689C91.2822 76.5852 92.4537 77.3021 93.8543 77.8398C95.1531 78.3263 96.8085 78.608 98.693 78.608ZM106.231 76.0475C106.766 75.561 107.275 74.972 107.734 74.3319C108.192 73.6918 108.651 72.9492 109.083 72.1555C109.516 71.3617 109.924 70.4912 110.331 69.5438C110.739 68.5964 111.146 67.5722 111.554 66.4712C110.459 65.8566 109.465 65.3445 108.523 64.9605C107.581 64.5508 106.766 64.3459 106.027 64.3459C106.027 64.8324 105.926 65.3189 105.747 65.8054C105.569 66.2663 105.263 66.7016 104.881 67.0601C104.499 67.4442 104.041 67.7514 103.481 68.0075C102.921 68.2635 102.284 68.4172 101.571 68.494C101.52 69.1085 101.596 69.7486 101.749 70.4143C101.927 71.0801 102.182 71.7458 102.564 72.4115C102.946 73.0773 103.43 73.7174 104.041 74.3319C104.678 74.9464 105.391 75.5098 106.231 76.0475ZM101.622 67.9563C102.157 67.905 102.64 67.7514 103.099 67.5466C103.532 67.3161 103.939 67.0601 104.245 66.7272C104.576 66.3944 104.831 66.0359 105.009 65.6262C105.187 65.2165 105.314 64.8068 105.365 64.3715C104.296 64.474 103.43 64.8836 102.793 65.5238C102.182 66.1895 101.775 67.0089 101.622 67.9563ZM113.107 67.3417C112.725 68.3147 112.318 69.2621 111.91 70.1327C111.503 71.0289 111.044 71.8482 110.561 72.6164C110.077 73.3845 109.542 74.1015 108.982 74.7672C108.421 75.4329 107.759 75.9963 107.072 76.5084C108.269 77.1485 109.669 77.6606 111.223 78.0191C112.802 78.4031 114.61 78.5824 116.647 78.5824C118.124 78.5824 119.448 78.4543 120.671 78.1727C121.893 77.891 122.988 77.5326 123.956 77.0717C124.924 76.6108 125.764 76.0475 126.477 75.4329C127.19 74.8184 127.802 74.1271 128.285 73.3845C127.496 73.4613 126.706 73.4357 125.866 73.3077C125.026 73.1797 124.185 72.9492 123.345 72.6676C122.479 72.3859 121.613 72.0275 120.747 71.5922C119.881 71.1825 119.016 70.7216 118.15 70.2607C117.284 69.7742 116.443 69.2877 115.578 68.8012C114.712 68.2891 113.897 67.8026 113.107 67.3417ZM114.89 62.3744C114.661 63.0657 114.406 63.757 114.177 64.4484C113.948 65.1397 113.693 65.7798 113.464 66.42C114.304 66.8808 115.17 67.393 116.036 67.9051C116.902 68.4428 117.768 68.9549 118.634 69.4414C119.499 69.9535 120.365 70.4143 121.231 70.8752C122.097 71.3361 122.937 71.7202 123.778 72.0275C124.618 72.3347 125.433 72.5908 126.223 72.7444C127.038 72.898 127.802 72.9492 128.54 72.8724C129.049 71.9763 129.381 71.0033 129.559 70.0047C129.737 69.0061 129.712 68.0331 129.533 67.0601C129.355 66.0871 128.999 65.1909 128.464 64.3203C127.929 63.4498 127.241 62.7072 126.375 62.0415C125.51 61.4014 124.491 60.8637 123.294 60.4796C122.097 60.0955 120.747 59.8907 119.245 59.8907L119.168 59.7114C120.416 59.7114 121.562 59.5322 122.555 59.1993C123.549 58.8665 124.414 58.4312 125.153 57.8935C125.892 57.3558 126.503 56.7412 127.012 56.0499C127.496 55.3586 127.878 54.6672 128.133 53.9247C128.387 53.2077 128.515 52.4908 128.54 51.7995C128.566 51.1081 128.438 50.4936 128.234 49.9559C128.005 49.4182 127.674 48.9829 127.216 48.65C126.783 48.3172 126.223 48.1379 125.535 48.1379C124.669 48.1379 123.854 48.266 123.141 48.4964C122.428 48.7268 121.74 49.1365 121.129 49.6742C120.493 50.2119 119.907 50.9289 119.321 51.7995C118.761 52.67 118.175 53.771 117.589 55.0257C117.156 56.1779 116.724 57.3558 116.291 58.5848C115.858 59.8138 115.374 61.0429 114.915 62.3231H114.89V62.3744ZM126.605 40.6869C126.248 40.2772 125.866 40.1235 125.459 40.1748C125.051 40.226 124.644 40.4564 124.236 40.8917C123.803 41.327 123.37 41.9159 122.912 42.6841C122.454 43.4522 121.995 44.374 121.486 45.4238C122.377 45.0141 123.218 44.6044 124.007 44.2204C124.771 43.8107 125.433 43.4266 125.917 43.0425C126.426 42.6585 126.732 42.2744 126.885 41.8647C127.063 41.455 126.961 41.0709 126.605 40.6869Z" fill="#99CA3C"/>
<path d="M138.752 65.8307C139.16 66.01 139.363 66.2916 139.414 66.6501C139.465 67.0086 139.389 67.4183 139.185 67.8535C138.981 68.2888 138.701 68.7241 138.345 69.1594C137.988 69.5947 137.581 69.9532 137.148 70.2348C136.715 70.5165 136.282 70.7213 135.874 70.7981C135.442 70.8749 135.085 70.7981 134.779 70.5421C134.652 71.003 134.55 71.4383 134.499 71.8479C134.448 72.2576 134.423 72.6417 134.474 72.9746C134.525 73.3074 134.601 73.5635 134.754 73.7683C134.907 73.9732 135.11 74.0756 135.391 74.0756C135.594 74.1012 135.849 74.0244 136.104 73.8963C136.358 73.7427 136.638 73.5635 136.919 73.333C137.199 73.1026 137.479 72.8209 137.759 72.5137C138.039 72.2064 138.319 71.8991 138.574 71.5663C139.185 70.8237 139.847 69.9532 140.509 68.9802L140.688 69.1594C139.771 70.5677 138.88 71.7199 137.988 72.6417C137.606 73.0514 137.224 73.4098 136.817 73.7171C136.409 74.0244 136.002 74.2804 135.62 74.434C135.212 74.5877 134.83 74.6389 134.474 74.5877C134.117 74.5365 133.761 74.306 133.455 73.9475C133.048 73.4867 132.844 72.9233 132.844 72.2832C132.819 71.6431 132.946 70.9774 133.2 70.3116C133.455 69.6459 133.786 68.9802 134.245 68.34C134.678 67.6999 135.187 67.1622 135.696 66.7269C136.231 66.2916 136.766 65.9588 137.301 65.7795C137.835 65.6003 138.294 65.6259 138.752 65.8307ZM138.065 65.9588C137.81 65.882 137.53 65.9588 137.25 66.1892C136.944 66.4197 136.664 66.7269 136.358 67.1366C136.078 67.5463 135.798 68.0072 135.543 68.5449C135.289 69.0826 135.06 69.6203 134.881 70.1836C135.11 70.4909 135.391 70.5933 135.722 70.5165C136.053 70.4397 136.358 70.2604 136.689 69.9788C136.995 69.6971 137.301 69.3386 137.581 68.9034C137.861 68.4681 138.065 68.0584 138.217 67.6487C138.37 67.239 138.447 66.8805 138.421 66.5733C138.421 66.266 138.294 66.0612 138.065 65.9588Z" fill="#99CA3C"/>
<path d="M147.258 65.7029C146.749 66.9831 146.316 68.1866 145.934 69.262C145.781 69.7229 145.628 70.1582 145.501 70.6191C145.348 71.0799 145.246 71.4896 145.144 71.8737C145.043 72.2578 144.992 72.565 144.966 72.8467C144.941 73.1284 144.941 73.3076 145.017 73.41C145.068 73.5124 145.17 73.538 145.297 73.4612C145.425 73.41 145.577 73.282 145.73 73.1284C145.883 72.9491 146.061 72.7443 146.239 72.4882C146.418 72.2322 146.621 71.9761 146.8 71.6945C147.233 71.0543 147.717 70.2862 148.226 69.39L148.404 69.5949C147.869 70.491 147.36 71.3104 146.851 72.0273C146.647 72.3346 146.418 72.6419 146.163 72.9491C145.934 73.2564 145.679 73.5124 145.475 73.7685C145.246 73.9989 145.017 74.2038 144.813 74.3574C144.584 74.511 144.406 74.6135 144.228 74.6391C144.024 74.6647 143.82 74.6391 143.667 74.5878C143.515 74.5366 143.387 74.383 143.336 74.1782C143.26 73.9733 143.234 73.6917 143.26 73.3332C143.285 72.9747 143.336 72.5394 143.438 72.0017C143.005 72.7955 142.521 73.41 142.012 73.8965C141.503 74.383 141.019 74.6391 140.56 74.6391C140.255 74.6391 140 74.511 139.822 74.2806C139.644 74.0501 139.516 73.7173 139.465 73.3332C139.414 72.9235 139.414 72.4626 139.491 71.9249C139.567 71.3872 139.695 70.7983 139.924 70.1838C140.127 69.5693 140.382 69.0059 140.688 68.4426C140.993 67.9049 141.299 67.4184 141.63 67.0343C141.961 66.6247 142.318 66.3174 142.649 66.087C143.005 65.8565 143.311 65.7285 143.616 65.7285C144.024 65.7285 144.304 65.9077 144.508 66.2918C144.686 66.6759 144.788 67.188 144.762 67.8025C144.89 67.4696 145.017 67.1368 145.144 66.7783C145.272 66.4198 145.425 66.0614 145.577 65.7029H147.258ZM141.35 73.9477C141.477 73.9477 141.63 73.8709 141.808 73.7429C141.987 73.6149 142.19 73.4356 142.394 73.1796C142.598 72.9491 142.801 72.6675 143.031 72.3346C143.234 72.0017 143.438 71.6433 143.616 71.2592C143.718 70.8751 143.82 70.4654 143.973 70.0045C144.1 69.5436 144.279 69.0571 144.482 68.5194C144.559 67.8793 144.559 67.3672 144.457 66.9575C144.355 66.5478 144.177 66.343 143.947 66.343C143.795 66.343 143.616 66.4454 143.438 66.6503C143.26 66.8551 143.056 67.1112 142.852 67.4696C142.649 67.8025 142.445 68.2122 142.241 68.6731C142.037 69.134 141.859 69.6205 141.681 70.1582C141.503 70.6959 141.35 71.1824 141.248 71.6433C141.146 72.1042 141.07 72.5138 141.019 72.8467C140.993 73.1796 140.993 73.4612 141.044 73.6661C141.044 73.8453 141.172 73.9477 141.35 73.9477Z" fill="#99CA3C"/>
<path d="M153.523 65.7029H155.255C154.745 66.9831 154.312 68.1866 153.93 69.262C153.778 69.7229 153.625 70.1582 153.472 70.6191C153.319 71.0799 153.192 71.4896 153.116 71.8737C153.014 72.2578 152.963 72.565 152.937 72.8467C152.912 73.1284 152.912 73.3076 152.988 73.41C153.039 73.5124 153.141 73.538 153.268 73.4612C153.396 73.41 153.548 73.282 153.701 73.1284C153.854 72.9491 154.032 72.7443 154.211 72.4882C154.389 72.2322 154.593 71.9761 154.771 71.6945C155.204 71.0543 155.688 70.2862 156.197 69.39L156.375 69.5949C155.84 70.491 155.306 71.3104 154.796 72.0273C154.593 72.3346 154.363 72.6419 154.109 72.9491C153.88 73.2564 153.625 73.5124 153.421 73.7685C153.192 73.9989 152.963 74.2038 152.759 74.3574C152.53 74.511 152.351 74.6135 152.173 74.6391C151.969 74.6647 151.791 74.6391 151.638 74.5878C151.486 74.5366 151.384 74.383 151.307 74.1782C151.231 73.9733 151.205 73.6917 151.205 73.3332C151.231 72.9747 151.282 72.5394 151.409 72.0017C150.951 72.7955 150.467 73.41 149.958 73.8965C149.448 74.383 148.964 74.6391 148.506 74.6391C148.2 74.6391 147.971 74.5366 147.767 74.3062C147.589 74.0758 147.462 73.7685 147.385 73.3588C147.335 72.9491 147.335 72.4882 147.411 71.9505C147.487 71.4128 147.64 70.8239 147.844 70.1838C148.048 69.5436 148.277 68.9547 148.506 68.417C148.735 67.8793 148.964 67.4184 149.143 67.0087C149.372 66.5479 149.576 66.1126 149.805 65.7285H151.46C151.231 66.215 151.002 66.7015 150.773 67.2136C150.569 67.6489 150.365 68.1354 150.136 68.6475C149.907 69.1596 149.728 69.6717 149.576 70.1582C149.423 70.6447 149.295 71.1312 149.168 71.5921C149.066 72.0529 148.99 72.437 148.939 72.7955C148.888 73.154 148.888 73.4356 148.939 73.6405C148.99 73.8453 149.092 73.9477 149.27 73.9477C149.55 73.9477 149.881 73.6917 150.314 73.2052C150.747 72.7187 151.155 72.0785 151.537 71.2848C151.715 70.5935 151.944 69.7997 152.275 68.9035C152.632 68.0073 153.039 66.9319 153.523 65.7029Z" fill="#99CA3C"/>
<path d="M168.396 64.0132H159.992C159.788 64.3461 159.584 64.679 159.355 65.0118C159.151 65.3191 158.947 65.652 158.744 65.9848C158.464 66.8042 158.26 67.4955 158.056 68.11C157.878 68.7246 157.75 69.1855 157.649 69.4671C157.445 70.184 157.292 70.773 157.19 71.2595C157.088 71.746 157.063 72.13 157.063 72.4629C157.088 72.7702 157.139 73.0262 157.241 73.1798C157.343 73.3335 157.521 73.4615 157.725 73.5383C157.878 73.5895 158.031 73.5895 158.234 73.4871C158.438 73.4103 158.642 73.2823 158.871 73.103C159.1 72.9238 159.304 72.719 159.559 72.4629C159.788 72.2069 160.017 71.9508 160.221 71.6691C160.73 71.029 161.265 70.2865 161.8 69.4671L161.927 69.672C161.265 70.6706 160.679 71.4899 160.17 72.13C159.635 72.7702 159.151 73.2823 158.718 73.6407C158.285 73.9992 157.852 74.2809 157.496 74.4089C157.114 74.5625 156.757 74.6393 156.401 74.6393C156.044 74.6393 155.79 74.4857 155.637 74.204C155.484 73.9224 155.382 73.5639 155.357 73.1286C155.331 72.719 155.331 72.2581 155.408 71.7972C155.484 71.3363 155.56 70.901 155.688 70.5425C155.739 70.4401 155.815 70.1841 155.942 69.8C156.07 69.4159 156.248 68.955 156.452 68.3661C156.655 67.8028 156.885 67.137 157.139 66.3945C157.419 65.652 157.7 64.8582 158.005 64.0132H152.097V63.706H158.132C158.565 62.6049 158.998 61.4271 159.482 60.2237C159.966 59.0202 160.45 57.8424 160.934 56.6902C161.418 55.5379 161.927 54.4625 162.436 53.4383C162.946 52.4141 163.404 51.5436 163.862 50.801C164.321 50.0585 164.728 49.5208 165.11 49.1367C165.492 48.7526 165.823 48.6246 166.104 48.7526C166.486 48.9318 166.689 49.2903 166.74 49.8024C166.791 50.3145 166.689 50.9546 166.486 51.6972C166.256 52.4397 165.925 53.2847 165.492 54.2321C165.059 55.1795 164.55 56.1781 163.99 57.2023C163.43 58.2521 162.793 59.3275 162.131 60.4285C161.469 61.5295 160.806 62.6306 160.144 63.6804H168.396V64.0132ZM159.075 65.0374C159.177 64.8582 159.304 64.7046 159.38 64.5253C159.482 64.3717 159.584 64.1925 159.686 64.0132H159.38L159.075 65.0374ZM166.078 49.2647C165.874 49.1367 165.62 49.2647 165.314 49.6232C165.009 49.9816 164.677 50.545 164.295 51.2619C163.913 51.9788 163.531 52.8238 163.124 53.8224C162.716 54.821 162.309 55.8708 161.876 56.9974C161.469 58.1241 161.061 59.2507 160.654 60.4029C160.246 61.5551 159.864 62.6818 159.508 63.7316H159.89C160.526 62.7074 161.188 61.632 161.825 60.5565C162.462 59.4811 163.048 58.4313 163.608 57.4327C164.168 56.4085 164.652 55.4611 165.085 54.5393C165.518 53.6432 165.849 52.8238 166.104 52.0813C166.358 51.3643 166.486 50.7498 166.486 50.2633C166.486 49.7768 166.358 49.4439 166.078 49.2647Z" fill="#99CA3C"/>
<path d="M169.694 69.4155L170 69.4411L160.297 91.7687C160.119 92.204 159.941 92.5881 159.762 92.921C159.61 93.2026 159.431 93.4587 159.202 93.6891C158.973 93.9196 158.744 94.0476 158.489 94.0476C158.158 94.0476 157.954 93.894 157.852 93.6123C157.75 93.3307 157.725 92.9466 157.801 92.4601C157.852 91.9736 157.98 91.4103 158.158 90.7702C158.336 90.13 158.54 89.4643 158.795 88.7474C159.024 88.0304 159.304 87.3135 159.559 86.5709C159.839 85.8284 160.093 85.1114 160.323 84.4457C160.475 83.9848 160.679 83.4215 160.934 82.7302C161.188 82.0388 161.469 81.2707 161.774 80.4513C162.08 79.6063 162.411 78.7358 162.767 77.7884C163.124 76.841 163.48 75.9192 163.837 74.9718C164.194 74.0244 164.525 73.1027 164.881 72.2065C165.212 71.3103 165.543 70.4653 165.823 69.6716C165.492 70.2605 165.11 70.8494 164.728 71.4383C164.321 72.0272 163.939 72.565 163.557 73.0258C163.175 73.4867 162.818 73.8708 162.487 74.1781C162.156 74.4853 161.876 74.6134 161.647 74.6134C161.341 74.6134 161.138 74.5109 161.01 74.2805C160.883 74.05 160.806 73.7428 160.806 73.3331C160.806 72.9234 160.883 72.4625 160.985 71.9248C161.112 71.3871 161.29 70.7982 161.494 70.1581C161.723 69.5179 161.952 68.929 162.182 68.3913C162.411 67.8536 162.64 67.3927 162.818 66.983C163.048 66.5222 163.251 66.0869 163.481 65.7028H165.136C164.881 66.1893 164.627 66.6758 164.372 67.1879C164.168 67.6232 163.939 68.1097 163.71 68.6218C163.48 69.1339 163.302 69.646 163.149 70.1325C162.971 70.619 162.818 71.1055 162.691 71.5407C162.538 71.976 162.436 72.3857 162.36 72.7186C162.284 73.0514 162.233 73.3331 162.233 73.5379C162.233 73.7428 162.284 73.8452 162.411 73.8452C162.513 73.8452 162.742 73.6404 163.099 73.2563C163.43 72.8722 163.812 72.3857 164.219 71.7968C164.627 71.2079 165.034 70.5678 165.467 69.902C165.874 69.2363 166.231 68.6218 166.486 68.0585C166.638 67.7 166.74 67.3671 166.868 67.0599C166.969 66.7782 167.071 66.5222 167.148 66.2917C167.224 66.0357 167.326 65.8052 167.402 65.626H169.109C168.829 66.2917 168.472 67.1623 168.014 68.2889C167.555 69.4155 167.02 70.6958 166.46 72.0785C165.9 73.4867 165.289 74.9718 164.652 76.5593C164.015 78.1469 163.404 79.7088 162.818 81.2451C162.233 82.807 161.672 84.2921 161.138 85.7004C160.603 87.1086 160.17 88.3633 159.813 89.4387C159.457 90.5141 159.228 91.3847 159.075 92.0248C158.947 92.6649 158.947 92.9722 159.1 92.9722C159.253 92.9722 159.61 92.3833 160.119 91.231C160.654 90.0788 161.367 88.4401 162.258 86.3405C163.149 84.2409 164.219 81.7572 165.441 78.8638C166.689 76.0472 168.115 72.8722 169.694 69.4155Z" fill="#99CA3C"/>
<path d="M79.8476 15.6191C79.1345 15.5935 71.7746 15.5935 66.0955 19.8183C66.0955 19.8183 70.7305 18.3844 76.3586 27.0902C76.3586 27.0902 79.2364 26.3732 81.2483 26.3732C83.2601 26.3732 90.8238 26.8853 96.5538 35.7447C96.5538 35.7447 93.7525 27.295 84.2533 21.7387C84.2533 21.7387 92.8357 23.6847 97.7253 34.2596C97.6998 34.2852 98.7694 16.2848 79.8476 15.6191ZM95.7389 36.4104C90.5436 28.6777 84.5335 27.4743 81.5029 27.4743C67.1397 27.4743 61.4096 41.9155 61.4096 41.9155C64.5421 38.8685 70.756 41.173 72.0548 41.6595C81.3756 45.1674 82.9545 45.0393 83.7949 45.0393C90.0852 45.0393 95.4587 38.2284 95.4587 38.2284C86.5963 32.1344 77.581 33.6195 77.581 33.6195C86.1124 30.1628 95.7389 36.4104 95.7389 36.4104ZM107.836 19.9208C107.25 4.63452 91.4859 0 91.4859 0C96.0445 3.30306 91.0275 17.8467 91.0275 17.8467C99.2788 23.1214 98.6421 33.6451 98.6421 33.6451C103.608 24.2736 101.367 15.3374 101.367 15.3374C105.467 24.2736 100.374 33.8243 100.374 33.8243C106.46 28.6009 107.988 23.6079 107.836 19.9208Z" fill="#99CA3C"/>
<path fill-rule="evenodd" clip-rule="evenodd" d="M97.9035 0.281982C97.9035 0.281982 109.236 9.06452 109.236 19.1017C109.236 20.8941 110 26.5272 100.043 35.9499C98.9986 36.9228 91.3076 44.0154 88.5827 47.1649C85.8577 50.3143 81.6302 55.4865 81.6302 64.3203C81.6302 65.959 82.0377 70.4143 83.4893 73.4357C83.4893 73.4357 82.4961 57.6117 98.4638 57.0484C101.112 56.946 103.735 58.0214 106.97 58.0214C110.204 58.0214 110.892 56.2803 110.892 54.7184C110.892 52.5163 109.975 51.5177 111.63 51.0312C112.165 50.8776 113.26 50.7752 113.26 49.8278C113.26 48.8548 111.859 47.8818 112.7 47.6002C113.515 47.3185 114.304 47.0112 114.304 46.3711C114.304 45.3725 113.26 44.3227 113.26 43.3241C113.26 42.8632 113.133 42.0439 116.622 40.9941C117.105 40.8404 117.615 40.5588 117.615 39.3809C117.615 38.6384 116.876 37.8446 115.807 36.4363C115.068 35.4634 112.445 32.2115 112.445 28.3195C112.445 27.1673 112.827 25.3494 112.827 22.456C112.827 20.766 113.897 6.11994 97.9035 0.281982Z" fill="#F06BA8"/>
</svg>
