<svg width="20" height="20" viewBox="0 0 20 20" fill="none" xmlns="http://www.w3.org/2000/svg">
<path d="M14.6137 1H5.55872C3.05827 1 1.03125 3.02702 1.03125 5.52747V14.5824C1.03125 17.0829 3.05827 19.1099 5.55872 19.1099H14.6137C17.1141 19.1099 19.1411 17.0829 19.1411 14.5824V5.52747C19.1411 3.02702 17.1141 1 14.6137 1Z" stroke="#F06BA8" stroke-width="1.5" stroke-linecap="round" stroke-linejoin="round"/>
<path d="M13.7081 9.48425C13.8199 10.2378 13.6912 11.0075 13.3403 11.6837C12.9894 12.3599 12.4342 12.9083 11.7537 13.2508C11.0732 13.5933 10.3021 13.7125 9.54991 13.5915C8.79775 13.4705 8.10291 13.1154 7.56421 12.5767C7.02551 12.038 6.67039 11.3431 6.54936 10.591C6.42833 9.8388 6.54755 9.06763 6.89006 8.38713C7.23257 7.70663 7.78094 7.15146 8.45716 6.80058C9.13338 6.44971 9.90303 6.32099 10.6566 6.43274C11.4253 6.54672 12.137 6.90492 12.6865 7.45441C13.236 8.0039 13.5941 8.71555 13.7081 9.48425Z" stroke="#F06BA8" stroke-width="1.5" stroke-linecap="round" stroke-linejoin="round"/>
<path d="M15.0664 5.07471H15.0764" stroke="#F06BA8" stroke-width="1.5" stroke-linecap="round" stroke-linejoin="round"/>
</svg>
