<svg width="163" height="293" viewBox="0 0 163 293" fill="none" xmlns="http://www.w3.org/2000/svg">
<path fill-rule="evenodd" clip-rule="evenodd" d="M71.2752 87.5923C71.2876 85.9167 70.6538 84.3654 69.5665 83.0689C68.8644 82.0328 67.8703 81.2203 67.4913 80.122C67.0812 78.8623 66.2797 78.18 65.4471 77.3364C64.6145 76.4928 63.9124 75.4567 62.9183 74.6441C60.7064 72.7275 58.6561 70.7797 56.7362 68.6395C50.4298 61.9896 45.0305 54.8303 39.7617 47.4786C38.1649 45.2762 36.8911 43.0115 35.6174 40.7469C34.4742 38.2898 33.1694 35.8639 32.0572 33.5681C31.2308 31.8867 30.566 30.1741 30.1932 28.238C30.0689 27.5926 30.1062 26.9161 30.305 26.2085C30.3733 25.6934 30.8268 25.4387 31.2431 25.8606C31.852 26.4126 32.4609 26.9647 32.9393 27.7092C33.834 28.8755 34.7288 30.0418 35.6235 31.2082C36.5182 32.3745 37.3818 33.3795 38.438 34.5147C40.5195 36.6238 42.8618 38.348 45.6267 39.6562C47.6522 40.6047 49.5472 41.7458 51.6037 42.8557C54.207 44.195 56.4189 46.1116 58.7924 47.9972C59.4013 48.5492 60.0102 49.1013 60.327 49.8769C61.0913 51.2357 62.1786 52.5322 63.0733 53.6985C64.8316 55.8698 65.9749 58.3269 67.2486 60.5915C68.2365 62.2419 69.0629 63.9234 69.8893 65.6048C69.9203 65.7662 70.1129 65.8964 70.2745 65.8653C70.436 65.8342 70.5976 65.8031 70.5665 65.6417C70.6659 65.2879 70.7342 64.7728 70.8026 64.2577C71.107 62.3585 71.3803 60.2979 71.6847 58.3987C72.629 52.8624 73.9585 47.5867 75.8037 42.3789C78.4379 35.1786 81.8426 28.4993 86.9496 22.8307C87.894 21.6449 89.031 20.5893 90.199 19.6951C90.8141 19.4094 91.0751 19.0245 91.336 18.6396C91.2367 23.3438 91.1374 28.0481 90.1993 32.7465C89.2612 37.445 88.6772 42.2425 87.9007 46.9099C87.7267 48.6166 87.3602 50.1931 86.9936 51.7697C86.8942 52.1234 86.7948 52.4772 86.6954 52.831C86.4966 53.5386 85.7511 54.0168 85.7449 54.8547C85.6641 57.0454 85.0988 59.3295 85.0491 61.6817C85.0741 67.0313 84.9064 72.2507 84.9314 77.6003C84.7948 82.9811 85.0123 88.4609 85.876 93.8164C86.3669 97.2357 87.3114 100.4 88.61 103.664C89.8154 106.444 90.8592 109.255 91.7415 112.097C92.6238 114.939 93.6677 117.75 94.5811 120.753C94.7053 121.398 94.9601 121.851 95.2459 122.465C95.7243 123.21 95.8797 124.017 96.035 124.823C96.4078 126.76 96.9422 128.665 97.4765 130.57C97.694 131.699 98.2656 132.927 98.8062 133.995C100.304 136.551 101.478 139.169 102.845 141.918C105.1 146.671 107.356 151.424 109.903 155.953C110.667 157.312 111.562 158.478 112.749 159.421C112.973 159.712 113.327 159.811 113.78 159.557C114.072 159.333 114.203 159.141 114.141 158.818C113.519 155.591 113.252 152.463 113.115 149.143C113.152 148.467 112.898 148.014 112.773 147.368C110.878 141.877 110.114 136.168 110.027 130.495C110.046 127.982 110.288 125.76 110.63 123.184C111.394 115.842 112.704 108.729 114.338 101.554C116.302 93.4794 119.52 85.832 122.545 78.0544C123.366 76.2232 123.993 74.2618 124.813 72.4306C125.304 71.4994 125.41 70.3078 125.515 69.1162C125.484 68.9549 125.646 68.9238 125.807 68.8927C125.969 68.8615 126.161 68.9918 126.161 68.9918C126.609 69.575 126.733 70.2203 126.857 70.8657C127.062 73.6707 127.429 76.4447 127.472 79.2809C127.46 80.9565 127.479 82.7935 127.466 84.4691C127.417 86.8213 127.398 89.3347 127.025 91.7491C126.535 97.0307 126.205 102.281 125.36 107.464C125.155 109.009 124.758 110.424 124.553 111.97C124.012 115.253 123.118 118.437 122.223 121.621C120.074 128.728 118.247 135.773 117.29 142.985C117.048 145.207 117.129 147.366 117.533 149.464C117.937 151.561 118.533 153.789 119.099 155.855C119.571 157.438 119.72 159.082 120.031 160.696C120.062 160.857 120.124 161.18 119.993 161.372C119.596 162.787 119.975 163.886 120.708 165.083C121.534 166.765 122.33 168.285 123.156 169.966C123.187 170.127 123.411 170.419 123.572 170.388C124.411 170.394 124.504 170.878 124.79 171.492C124.852 171.815 125.076 172.106 125.399 172.044C125.915 172.112 126.008 172.596 126.231 172.888C126.517 173.502 126.772 173.955 127.058 174.569C128.046 176.22 129.357 177.808 130.183 179.489C131.009 181.171 132.451 182.566 133.569 184.024C135.104 185.904 136.639 187.784 137.881 189.887C138.391 190.793 139.223 191.636 139.863 192.35C142.933 196.109 146.132 199.676 149.494 203.212C150.357 204.217 151.19 205.061 152.346 205.842C152.799 205.588 152.706 205.104 152.482 204.812C150.432 198.514 149.512 191.998 148.108 185.575C147.673 183.316 147.4 181.026 147.095 178.575C146.548 173.995 145.84 169.447 145.939 164.742C146.057 161.875 146.175 159.008 146.293 156.141C146.399 154.949 146.343 153.788 146.417 152.435C146.374 149.599 147.039 146.961 147.896 144.454C147.995 144.1 148.064 143.585 148.132 143.07C148.586 138.465 148.877 133.891 149.331 129.285C149.337 128.448 149.474 127.417 149.642 126.548C150.114 123.78 150.555 120.851 151.027 118.083C151.095 117.568 151.195 117.214 151.456 116.829C151.617 116.798 151.779 116.767 151.94 116.736L152.133 116.866C152.164 117.027 152.195 117.188 152.226 117.35C151.953 119.41 152.487 121.315 152.667 123.121C152.823 123.928 153.14 124.704 153.295 125.51C154.022 127.546 154.587 129.612 155.345 131.808C155.911 133.875 156.315 135.972 156.395 138.132C156.632 141.098 157.029 144.034 157.265 147C157.57 149.451 157.52 151.803 157.502 154.317C157.384 157.184 157.589 159.989 157.471 162.857C157.371 167.561 157.111 172.296 156.98 176.839C157.011 177 156.912 177.354 156.943 177.516C156.371 180.637 156.477 183.796 156.775 187.085C157.098 191.374 157.229 195.532 157.36 199.69C157.502 202.172 157.484 204.685 157.465 207.199C157.527 207.522 157.621 208.006 157.683 208.328C158 209.104 158.124 209.749 158.441 210.525C158.758 211.301 159.267 212.206 159.876 212.758C164.07 217.138 168.394 221.325 172.588 225.705C174.477 227.683 176.627 229.277 178.808 231.033C182.915 234.09 186.86 237.179 190.836 240.429C193.626 242.737 196.254 245.075 198.882 247.414C200.293 248.648 201.542 249.913 203.052 250.794C204.207 251.575 205.263 252.711 206.127 253.716C206.991 254.721 207.985 255.533 209.209 255.799C210.271 256.097 211.203 256.587 212.005 257.269C212.744 257.628 213.191 258.212 213.185 259.049C213.496 260.663 212.098 262.103 210.197 261.8C209.327 261.633 208.296 261.497 207.494 260.815C206.276 259.711 204.959 258.96 203.611 258.049C201.331 256.647 199.15 254.892 197 253.298C195.621 252.225 193.949 251.375 192.408 250.333C191.091 249.583 189.774 248.833 189.01 247.474C188.755 247.021 188.208 246.792 187.792 246.37C186.059 245.198 184.294 243.864 182.722 242.661C181.535 241.718 180.541 240.906 178.963 240.54C176.298 238.878 173.166 239.147 170.203 238.546C167.749 238.851 165.462 238.288 163.207 237.885C163.045 237.916 162.853 237.786 162.691 237.817C160.429 238.253 158.336 237.819 156.174 237.901C150.495 237.991 144.971 238.887 139.255 239.653C134.024 240.326 128.768 239.999 123.778 238.45C121.461 237.725 119.013 237.192 116.727 236.629C114.794 236.164 112.961 235.346 111.259 234.335C108.432 232.704 105.736 230.881 103.169 228.865C102.175 228.052 101.343 227.209 100.641 226.173C100.61 226.011 100.548 225.689 100.516 225.527C100.616 225.174 100.939 225.111 101.293 225.211C102.163 225.378 103.002 225.383 103.741 225.743C104.319 226.134 105.027 226.332 105.574 226.561C109.501 227.813 113.297 229.257 117.224 230.509C121.119 231.6 125.046 232.851 129.171 233.396C131.557 233.606 133.844 234.169 136.099 234.572C140.287 235.438 144.48 235.468 148.836 235.465C150.513 235.477 152.129 235.166 153.744 234.855C156.298 234.196 158.814 234.213 161.33 234.231C164.362 234.316 167.133 234.787 170.196 235.033C170.519 234.971 170.712 235.102 171.035 235.039C171.265 234.493 170.718 234.264 170.526 234.133C168.376 232.539 166.226 230.946 163.884 229.221C157.627 224.57 152.054 219.117 146.903 213.249C144.76 210.817 142.908 208.162 141.348 205.283C140.298 203.31 138.596 202.299 137.024 201.096C136.639 200.835 136.316 200.897 135.993 200.959C132.986 201.873 129.823 201.98 126.686 203.086C123.517 204.031 120.193 204.169 116.776 203.823C112.004 203.404 107.201 202.822 102.436 201.565C99.2485 200.673 96.1606 199.427 93.2031 197.988C87.0956 194.981 81.5411 191.366 75.9554 187.589C72.1033 184.984 68.9345 181.578 65.5048 178.558C63.8708 177.032 62.5598 175.443 61.1867 173.533C58.4093 169.55 55.4394 165.436 52.5316 161.646C50.7422 159.313 49.0833 156.788 47.6169 154.393C45.61 150.931 43.4416 147.5 41.3042 144.231C40.8569 143.647 40.4095 143.064 39.9622 142.481C39.9311 142.32 39.869 141.997 39.9995 141.805C40.745 141.326 41.4595 140.687 42.522 140.984C44.74 142.063 47.0265 142.627 49.1141 143.898C51.0091 145.039 52.9352 146.341 54.6997 147.675C56.1101 148.909 57.4894 149.982 59.0303 151.024C60.9875 152.488 62.7831 153.983 64.7713 155.608C68.3625 158.597 71.6928 161.972 75.284 164.962C79.2604 168.212 83.3673 171.269 87.8657 173.75C88.605 174.109 89.1829 174.5 89.7607 174.891C92.9045 177.297 96.4088 178.965 99.944 180.794C101.261 181.545 102.386 182.165 103.703 182.915C104.088 183.175 104.473 183.436 104.828 183.535C107.145 184.26 109.363 185.339 111.519 186.095C114.383 187.049 116.956 188.227 119.72 189.536C121.007 190.124 122.293 190.713 123.84 190.918C124.871 191.054 125.772 191.382 126.673 191.711C128.152 192.43 129.668 192.473 131.215 192.677C131.637 192.261 131.445 192.13 131.221 191.839C129.5 188.991 127.94 186.112 126.219 183.264C125.71 182.358 125.07 181.645 124.591 180.901C121.075 176.558 117.396 172.246 114.333 167.649C113.824 166.743 113.053 166.222 112.413 165.509C111.997 165.087 111.612 164.827 110.997 165.112C107.406 166.473 104.026 165.451 100.807 164.397C96.5265 163.046 92.4134 160.827 88.4619 158.576C87.3373 157.956 86.3742 157.304 85.4112 156.653C80.5277 153.912 76.2965 150.209 72.2268 146.475C64.6964 139.559 66.1379 140.955 61.13 133.218C59.9495 131.437 58.7379 129.495 57.8494 127.491C56.7994 125.518 55.5878 123.576 54.3762 121.634C52.9409 119.401 51.6361 116.975 50.4929 114.518C49.0949 111.608 47.8273 108.505 45.5222 106.105C45.3296 105.974 45.2675 105.652 45.2364 105.49C45.2054 105.329 45.3358 105.137 45.3358 105.137C45.4974 105.106 45.6589 105.074 45.8205 105.043C45.982 105.012 46.1746 105.142 46.1746 105.142C48.0013 106.799 50.0889 108.07 52.1455 109.18C54.2331 110.451 55.8672 111.977 57.5323 113.664C61.4715 117.591 65.1497 121.902 68.3744 126.469C69.9712 128.671 71.7295 130.842 73.4568 132.852C75.824 135.576 77.7377 138.554 79.9434 141.308C82.6275 144.807 85.5726 147.921 89.1327 150.749C89.9342 151.432 90.9283 152.244 91.7298 152.927C93.395 154.614 95.4826 155.885 97.5081 156.834C100.08 158.012 102.522 159.382 105.094 160.56C105.834 160.92 106.542 161.118 107.12 161.509C107.474 161.608 107.859 161.868 108.12 161.483C108.543 161.067 107.965 160.677 107.741 160.385C106.623 158.927 105.473 157.308 104.355 155.85C103.268 154.553 102.503 153.195 101.739 151.836C99.8316 148.02 97.9241 144.204 95.9856 140.227C95.1281 138.384 94.4012 136.349 93.6742 134.314C92.9783 132.44 92.2824 130.566 91.6176 128.853C90.5116 125.72 89.213 122.456 87.4919 119.608C86.7898 118.572 86.4108 117.474 85.8702 116.407C85.3297 115.339 84.6276 114.303 83.795 113.46C81.2973 110.929 78.7996 108.398 76.1714 106.059C72.8722 102.846 69.4425 99.8254 65.9134 97.1584C64.5341 96.0854 62.9622 94.8821 61.7133 93.6167C59.8556 91.7992 57.7369 90.3666 55.6182 88.934C54.4626 88.1525 53.338 87.5325 52.1513 86.5897C47.6591 83.2715 42.9371 80.4996 37.8237 78.3051C33.226 76.1785 28.9203 73.8285 24.3536 71.8633C23.9995 71.7641 23.8069 71.6339 23.6143 71.5037C18.2089 69.5327 14.0087 65.991 10.5915 61.2946C9.2494 59.5451 7.7458 57.8267 6.43481 56.2385C6.01853 55.8167 5.60224 55.3949 5.31643 54.7806C5.28536 54.6193 5.22323 54.2966 5.19216 54.1353C5.32263 53.9428 5.48417 53.9117 5.83832 54.0108C7.32324 53.8922 8.35462 54.0283 9.02565 54.903C9.24932 55.1946 9.60347 55.2937 9.79608 55.424C13.3873 58.4136 17.5998 60.2797 21.9117 61.7919C27.9944 63.7999 34.1081 65.9691 40.0603 68.1695C41.6695 68.6963 43.1482 69.4155 44.6269 70.1347C48.9016 72.3234 52.8842 74.7357 56.4444 77.564C60.9986 81.2049 65.6833 84.6533 70.4985 87.9092C70.6911 88.0394 70.8838 88.1697 71.0453 88.1386C71.561 88.2066 71.3373 87.915 71.2752 87.5923ZM121.943 85.3654C121.328 85.6512 121.614 86.2654 121.353 86.6503C120.899 86.905 120.8 87.2588 120.539 87.6437C120.303 89.0278 120.067 90.4118 120.023 91.9261C120.085 92.2488 119.986 92.6026 120.471 92.5093C120.936 90.579 121.21 88.5184 121.353 86.6503C121.483 86.4579 121.583 86.1041 121.713 85.9117C122.067 86.0108 122.229 85.9797 122.583 86.0788C122.937 86.1779 123.067 85.9855 123.005 85.6628C123.31 83.7636 123.776 81.8333 124.08 79.9341C124.279 79.2265 124.285 78.3887 125.062 78.0718C125.354 77.8482 125.422 77.3331 125.36 77.0104C125.428 76.4953 125.366 76.1726 125.273 75.6886C125.211 75.3659 125.441 74.8196 125.055 74.5592C123.968 77.6131 123.043 80.6359 121.924 83.5284C122.21 84.1427 121.657 84.7511 121.943 85.3654ZM154.104 199.313C154.135 199.474 154.135 199.474 154.104 199.313C154.272 198.444 154.601 197.544 154.446 196.737C154.483 196.06 154.489 195.223 154.688 194.515C154.992 192.616 154.974 190.779 154.955 188.942C154.849 185.783 154.551 182.494 154.93 179.242C155.147 176.021 155.365 172.8 155.582 169.579C155.719 168.548 155.694 167.549 155.7 166.711C155.762 162.684 155.793 158.494 155.855 154.467C155.923 153.952 155.992 153.436 155.544 152.853C154.619 155.876 154.178 158.805 154.091 161.834C154.047 167.699 154.134 173.371 154.091 179.236C153.588 181.843 153.569 184.356 153.743 187C153.861 188.483 154.011 190.128 153.967 191.642C153.955 193.318 153.75 194.863 153.899 196.508C153.893 197.345 153.855 198.022 153.849 198.86C153.688 198.891 153.88 199.021 154.104 199.313ZM84.5661 153.135C85.3987 153.978 86.3307 154.468 87.7783 155.026C86.7532 154.052 85.9517 153.37 85.0197 152.88C84.0256 152.068 82.8699 151.286 81.8758 150.474C79.7012 147.88 77.334 145.157 75.1593 142.564C73.8483 140.976 72.5063 139.226 71.1953 137.638C66.5354 130.839 62.068 124.169 57.4081 117.369C57.1844 117.078 56.9607 116.786 56.9297 116.625C56.9421 114.949 55.6249 114.199 54.5997 113.225C53.3819 112.121 52.0026 111.048 50.8159 110.105C50.6233 109.975 50.3996 109.683 49.9771 110.099C51.4683 113.493 53.2826 116.825 55.3889 119.933C56.5694 121.714 57.9425 123.625 58.9615 125.437C61.2853 129.674 64.0626 133.657 66.8399 137.64C67.3494 138.546 68.1509 139.228 68.9835 140.072C72.8916 143.837 76.9612 147.571 81.1303 150.952C81.9628 151.795 83.28 152.546 84.5661 153.135ZM82.5334 92.1175C82.6017 91.6023 82.4774 90.957 82.2227 90.504C81.8313 91.0814 81.7629 91.5965 82.1792 92.0183C81.9121 93.2411 82.2911 94.3394 82.347 95.4999C82.3781 95.6612 82.4402 95.9839 82.6329 96.1141C82.6639 96.2755 82.8565 96.4057 83.0181 96.3746C83.1796 96.3435 83.1485 96.1822 83.279 95.9897C83.3784 95.6359 83.3163 95.3132 83.2231 94.8292C83.0677 94.0225 82.8813 93.0544 82.5334 92.1175ZM88.2883 182.035C87.7415 181.805 87.2942 181.222 86.617 181.185C86.0391 180.795 85.4302 180.242 84.8524 179.852C81.9012 177.576 78.689 175.684 75.1848 174.016C70.0092 171.499 65.2561 168.566 60.5031 165.633C60.1179 165.372 59.9253 165.242 59.54 164.981C58.7385 164.299 58.4527 163.685 58.7137 163.3C59.2977 162.853 59.8755 163.244 60.4533 163.634C62.1557 164.645 64.0197 165.625 65.7221 166.636C66.9399 167.74 68.226 168.329 69.6737 168.887C68.6485 167.913 67.7848 166.908 66.6603 166.288C65.2188 164.892 63.9389 163.465 62.4974 162.069C57.9804 157.752 54.0164 152.826 49.6299 148.317C49.4373 148.186 49.4062 148.025 49.1825 147.733C48.1946 146.083 46.7842 144.849 44.9513 144.03C44.4046 143.801 43.9261 143.056 42.9569 143.243C43.4353 143.988 43.9448 144.893 44.3922 145.477C46.5295 148.746 48.7974 151.823 50.9347 155.093C52.3389 157.165 53.7431 159.237 55.2778 161.117C57.7072 164.163 60.1365 167.209 62.4354 170.448C64.318 173.264 66.6542 175.826 69.0898 178.035C72.3269 180.925 75.4024 183.847 79.0619 186.321C82.3363 188.535 85.7722 190.718 89.177 192.74C92.3581 194.47 95.5703 196.361 98.9813 197.545C99.5281 197.774 100.044 197.842 100.559 197.91C104.846 198.423 109.171 198.26 113.433 197.774L113.563 197.581C110.246 196.882 107.089 196.151 103.933 195.42C103.063 195.253 102.001 194.956 101.1 194.627C97.8505 193.412 94.7004 191.843 91.221 191.175C88.7731 190.642 86.7165 189.532 84.399 188.807C84.2064 188.677 84.0138 188.547 84.1132 188.193L84.4052 187.97C85.7597 188.043 87.0147 188.471 88.4313 188.868C89.3322 189.196 90.2331 189.525 91.395 189.468C91.0098 189.208 90.7861 188.916 90.5935 188.786C86.5425 186.889 82.5599 184.476 78.248 182.964C78.0554 182.834 77.8938 182.865 77.7012 182.735C77.7012 182.735 77.4775 182.443 77.6391 182.412C77.608 182.251 77.7695 182.22 77.9311 182.188C78.9003 182.002 79.9628 182.299 80.8637 182.628C81.9261 182.925 82.8581 183.415 83.759 183.743C84.1131 183.843 84.4673 183.942 84.5978 183.749C84.7282 183.557 84.5046 183.265 84.1504 183.166C82.4791 182.317 80.6462 181.498 79.0059 180.81C75.918 179.564 73.091 177.933 70.2951 176.464C69.3631 175.974 68.5927 175.453 67.9217 174.578C67.8906 174.417 67.8285 174.094 67.7974 173.933C67.9279 173.741 68.2509 173.678 68.4436 173.809C70.0155 175.012 71.9788 175.638 73.6502 176.487C77.5085 178.254 81.3047 179.698 85.1631 181.465C85.5794 181.887 86.2877 182.085 86.8034 182.153C88.6363 182.972 90.4691 183.79 92.4014 184.255C91.2147 183.312 89.6055 182.785 88.2883 182.035ZM61.515 120.427C61.1981 119.651 60.5892 119.099 59.6883 118.771C60.0363 119.708 60.6762 120.421 61.4777 121.104C62.2792 121.786 62.7887 122.692 63.2982 123.598C64.0624 124.956 65.0193 126.445 66.0755 127.581C68.3434 130.658 70.4497 133.766 72.6864 136.682C73.1648 137.426 73.6495 137.333 74.395 136.855C71.8041 133.84 69.3437 130.632 66.7528 127.617C65.4169 125.03 63.3044 122.76 61.515 120.427ZM100.478 187.05C101.765 187.639 103.013 188.904 104.821 188.723C103.635 187.781 102.672 187.129 101.547 186.509C99.6148 186.045 97.9124 185.034 96.179 183.862C95.2159 183.211 94.5449 182.336 93.4514 181.877C92.8425 181.325 92.2336 180.773 91.6247 180.221C91.2395 179.96 91.0158 179.669 90.5001 179.601C89.9844 179.533 89.2761 179.335 88.7605 179.267C88.2448 179.199 87.8285 178.777 87.0518 179.094C89.009 180.557 91.0345 181.506 92.8984 182.486C95.2097 184.048 97.7447 185.903 100.478 187.05ZM81.8323 147.637C83.1433 149.226 84.7463 150.59 86.6413 151.731C87.6975 152.866 89.0147 153.617 90.1704 154.398C90.1704 154.398 90.4935 154.336 90.6861 154.466C89.5987 153.17 88.412 152.227 87.0948 151.476C85.4918 150.112 83.8888 148.747 82.4474 147.352C81.8385 146.8 81.3911 146.216 80.8133 145.826C80.2355 145.435 79.7881 144.852 78.8251 144.201C79.9124 145.497 80.8071 146.664 81.8323 147.637ZM112.811 133.641C113.016 132.095 113.252 130.711 113.457 129.166C113.693 127.782 113.475 126.652 112.841 125.101C112.444 126.516 112.307 127.546 112.332 128.546C112.32 130.221 112.307 131.897 112.456 133.541C112.419 134.218 112.543 134.863 112.73 135.831C113.059 134.931 113.419 134.193 112.811 133.641ZM93.7487 128.61C94.7614 131.26 95.7431 133.748 96.5944 136.429C97.0045 137.688 97.4146 138.948 98.3403 140.275C98.4397 139.922 98.4087 139.76 98.3776 139.599C97.9986 138.501 97.6506 137.564 97.1101 136.497C96.3893 133.623 95.6685 130.75 94.1711 128.194C93.7921 127.096 93.2826 126.19 92.6116 125.315C92.4811 125.508 92.3507 125.7 92.3507 125.7C92.8912 126.767 93.2392 127.704 93.7487 128.61ZM137.602 192.785C136.676 191.458 135.943 190.26 135.017 188.933C135.017 188.933 134.986 188.771 134.824 188.802C134.824 188.802 134.663 188.833 134.532 189.026C135.135 190.416 135.93 191.936 136.987 193.071C138.068 195.205 139.41 196.955 140.783 198.866C141.205 198.45 141.305 198.096 141.727 197.68C140.416 196.092 139.105 194.504 137.602 192.785ZM36.3449 68.8849C35.9286 68.4631 35.5744 68.364 34.8972 68.3271C35.2824 68.5875 35.6676 68.848 36.0528 69.1085C38.4946 70.4789 41.0358 71.4955 43.577 72.5121C45.2794 73.5229 47.1433 74.5026 48.8457 75.5134C49.9703 76.1335 50.9333 76.7846 52.0268 77.2434C52.381 77.3425 52.6668 77.9568 53.3813 77.3172C50.4922 75.3637 47.6341 73.5714 44.6767 72.133C41.9118 70.8248 39.178 69.678 36.3449 68.8849ZM73.5426 68.9172C74.2633 67.4398 73.6606 66.0499 73.5736 64.728C73.2754 65.7894 73.1387 66.8197 72.8094 67.7197C72.7722 68.3962 73.3189 68.6256 73.5426 68.9172C73.493 71.2693 73.2817 73.6525 73.7478 76.0727C73.9963 77.3634 74.2449 78.6542 74.5245 80.1063C74.6177 80.5903 74.5183 80.9441 74.6115 81.4281C74.7047 81.9121 74.7979 82.3962 74.9222 83.0415C74.9843 83.3642 74.916 83.8794 75.6553 84.239C75.4751 82.4331 75.5186 80.9188 75.0464 79.3365C74.6487 76.4012 74.4436 73.5961 74.0459 70.6608C74.0832 69.9843 73.99 69.5003 73.5426 68.9172ZM119.558 111.258C119.446 113.288 119.141 115.187 118.837 117.086C118.464 119.5 118.253 121.884 118.458 124.689C119.558 119.959 120.104 115.838 120.943 111.493C120.98 110.817 120.626 110.718 120.272 110.619C121.16 108.272 121.695 105.827 122.067 103.413C122.136 102.897 122.397 102.513 122.496 102.159C122.794 101.097 123.254 100.005 123.198 98.8444C123.403 97.299 123.993 96.0141 124.714 94.5367C125.043 93.6367 125.404 92.898 125.379 91.8988C125.528 89.1929 125.677 86.487 125.826 83.781C125.925 83.4272 126.025 83.0734 125.609 82.6516C125.509 83.0054 125.379 83.1979 125.41 83.3592C124.565 88.5417 123.689 93.5628 122.844 98.7453C122.583 99.1302 122.322 99.5151 122.254 100.03C121.949 101.929 121.452 103.698 121.148 105.598C121.08 106.113 121.204 106.758 120.589 107.044C119.843 107.522 119.806 108.199 119.8 109.036C119.439 109.775 119.433 110.613 119.558 111.258ZM64.6083 72.9801C65.0246 73.4019 65.1799 74.2087 66.1181 73.8607C65.9938 73.2153 65.739 72.7624 65.1923 72.533C64.7449 71.9498 64.4281 71.1742 63.9807 70.5911C63.5023 69.8466 63.1854 69.0709 62.446 68.7113C61.6756 68.1904 60.9052 67.6694 60.1658 67.3098C59.588 66.9191 58.9791 66.3671 57.9788 66.3924C60.1223 68.8241 62.2348 71.0946 64.6083 72.9801ZM78.8303 86.8068C78.7805 84.8085 79.2465 82.8782 79.5198 80.8176C79.7559 79.4335 79.7994 77.9192 80.0354 76.5352C80.0044 76.3738 79.9422 76.0511 79.9112 75.8898C79.265 76.0142 78.712 76.6227 77.9416 76.1017C77.5564 75.8413 77.457 76.1951 77.4881 76.3564C77.4943 79.869 77.308 83.2514 77.9604 86.6396C77.8921 87.1548 78.0164 87.8002 78.4637 88.3833C78.6936 87.8371 78.9235 87.2908 78.8303 86.8068ZM70.4924 93.0975C72.0271 94.9772 73.7233 96.8258 75.258 98.7055C76.7616 100.424 78.2652 102.142 79.8682 103.507C80.0918 103.798 80.3466 104.251 80.7318 104.512C80.9555 104.803 81.2102 105.256 81.6948 105.163C81.378 104.387 81.0921 103.773 80.4832 103.221C79.1474 100.634 77.6189 97.9163 75.407 95.9996C74.6366 95.4787 73.8972 95.1191 73.1268 94.5981C72.3874 94.2385 72.17 93.1091 71.2691 92.7806C68.7652 91.0875 66.8142 88.786 64.0493 87.4778C66.0003 89.7793 68.1811 91.5346 70.4924 93.0975ZM52.6353 56.0431C53.2132 56.4338 53.9215 56.6321 54.5304 57.1842C55.1392 57.7362 55.5866 58.3194 56.5186 58.8092C55.9842 56.9042 54.5366 56.3463 53.0889 55.7885C51.3865 54.7777 49.5847 54.1207 47.7829 53.4637C47.553 54.0099 47.9071 54.109 48.1308 54.4006C49.6655 56.2803 51.0386 58.1912 52.5733 60.0709C53.2443 60.9456 53.8159 62.1742 55.3319 62.2169C55.6861 62.316 55.9098 62.6076 56.1334 62.8992C57.7054 64.1024 59.2152 64.983 61.048 65.8013C60.2217 64.1199 60.2217 64.1199 59.066 63.3385C58.4571 62.7864 57.7178 62.4268 57.1089 61.8747C55.1207 60.2497 53.5549 58.2086 51.5667 56.5836L51.5356 56.4222C51.5046 56.2609 51.4735 56.0995 51.4424 55.9382C51.4424 55.9382 51.7344 55.7146 51.927 55.8449C51.927 55.8449 52.2812 55.944 52.6353 56.0431ZM133.241 237.13C132.725 237.062 132.048 237.025 131.663 236.764C130.83 235.921 129.668 235.977 128.799 235.81C124.642 235.104 120.554 233.884 116.627 232.632C114.471 231.876 112.154 231.151 109.998 230.395C109.165 229.551 107.972 229.446 106.556 229.05C107.227 229.924 107.804 230.315 108.513 230.513C109.091 230.904 109.637 231.133 110.215 231.524C113.104 233.478 116.385 234.854 119.864 235.523C121.088 235.789 122.312 236.055 123.567 236.483C126.916 237.344 130.296 238.366 133.782 238.197C134.49 238.395 135.167 238.432 135.882 237.793C134.981 237.464 134.111 237.297 133.241 237.13ZM150.816 146.569C149.785 150.783 149.773 152.459 150.276 154.202C150.649 151.788 150.86 149.405 151.264 147.152C151.232 146.99 151.201 146.829 151.009 146.699C151.276 145.476 151.705 144.222 151.972 143C152.071 142.646 152.108 141.969 152.624 142.037C153.14 142.105 152.941 142.813 152.842 143.167C152.773 143.682 152.674 144.036 152.767 144.52C152.494 146.58 152.189 148.479 151.916 150.54C151.574 153.116 151.717 155.598 151.891 158.242C151.984 158.726 152.047 159.049 152.463 159.47C152.5 158.794 152.537 158.117 152.736 157.41C152.972 156.026 153.239 154.803 153.476 153.419C153.643 152.55 154.165 151.78 154.973 151.625C155.457 151.531 155.557 151.178 155.495 150.855C155.532 150.178 155.408 149.533 155.445 148.857C155.147 145.567 154.848 142.278 154.712 138.958C154.444 135.83 153.885 132.926 152.972 129.923C153.04 129.408 152.916 128.762 152.593 128.825C151.947 128.949 152.232 129.563 152.164 130.078L152.195 130.24C152.09 131.431 152.114 132.431 152.009 133.622C151.493 137.905 151.139 142.156 150.816 146.569ZM87.2419 35.6585C86.7138 37.2662 86.7014 38.9418 86.6579 40.4561C87.0245 38.8796 87.5526 37.272 87.596 35.7577C88.3353 31.7668 89.1057 27.9373 89.845 23.9465C89.9444 23.5927 90.0748 23.4002 89.5281 23.1708C89.3976 23.3633 89.1056 23.5868 88.9751 23.7793C85.3965 27.8149 82.8119 32.6631 80.4199 37.6415C78.0591 42.7812 76.7606 48.2184 75.4622 53.6555C75.3628 54.0093 75.2634 54.3631 75.3255 54.6858C75.3566 54.8471 75.4187 55.1698 75.6113 55.3C76.2886 55.337 76.2202 55.8521 76.1519 56.3672C76.009 58.2353 75.8351 59.9421 75.5307 61.8413C75.2263 63.7405 75.4375 65.7077 75.8104 67.6438C76.0092 66.9363 76.208 66.2287 76.2453 65.5522C76.6242 62.3 76.8416 59.079 77.4131 55.957C78.2208 51.451 78.9973 46.7837 80.1591 42.3768C80.4884 41.4768 80.625 40.4465 81.1469 39.6767C81.5383 39.0994 81.9297 38.522 82.5448 38.2363C82.8679 38.1741 83.2221 38.2732 83.1227 38.627C83.1537 38.7883 83.0543 39.1421 83.2469 39.2724C83.6321 39.5328 83.8931 39.1479 84.0236 38.9555C84.3528 38.0554 84.8437 37.1243 85.0114 36.2554C85.409 34.8402 86.1608 33.5242 86.9125 32.2081C86.7883 31.5627 87.0803 31.3392 87.4344 31.4383C87.6581 31.7299 87.5587 32.0837 87.4282 32.2761C87.1983 32.8224 86.9685 33.3686 86.7386 33.9149C86.3782 34.6536 87.6022 34.9199 87.2419 35.6585ZM145.822 202.413C145.598 202.122 145.343 201.669 145.12 201.377C144.896 201.086 144.48 200.664 143.772 200.466C144.151 201.564 144.467 202.339 145.238 202.86C147.562 207.098 150.277 210.758 154.061 213.878C156.465 215.925 158.739 218.165 160.721 220.627C161.361 221.341 161.97 221.893 162.61 222.606C165.431 225.075 168.544 227.32 171.495 229.596C173.259 230.93 175.154 232.071 176.627 233.628C178.131 235.346 179.765 236.872 181.952 237.79C182.306 237.889 182.691 238.149 182.753 238.472C182.778 239.471 183.548 239.992 184.319 240.513C185.829 241.394 187.37 242.435 188.618 243.701C190.252 245.227 192.34 246.498 194.266 247.801C195.291 248.774 196.416 249.394 197.671 249.822C196.969 248.786 196.298 247.911 195.204 247.453C193.409 245.958 191.744 244.27 189.948 242.776C186.195 239.817 182.411 236.697 178.528 233.931C174.838 231.295 171.408 228.274 168.401 224.838C165.617 221.693 162.573 218.932 159.659 215.98C159.273 215.719 159.019 215.266 158.534 215.359C157.242 215.608 156.701 214.541 156.546 213.734C156.391 212.928 155.974 212.506 155.558 212.084C152.228 208.709 148.668 205.881 145.822 202.413ZM68.6032 69.3663C68.7586 70.173 69.2059 70.7562 70.0385 71.5998C69.9825 70.4393 69.6657 69.6637 69.0257 68.9503C68.0751 66.6235 67.1244 64.2966 65.7202 62.2245C64.2539 59.8296 62.9491 57.4036 61.4828 55.0088C60.5259 53.5198 59.246 52.093 58.4507 50.5728C58.196 50.1199 57.7797 49.6981 57.3944 49.4376C55.4373 47.9739 53.5796 46.1564 51.3615 45.0776C49.1123 43.8374 46.8631 42.5973 44.645 41.5184C42.0417 40.1791 39.5689 38.6474 37.6801 36.6685C37.4253 36.2156 37.2327 36.0854 37.0091 35.7938C36.7232 35.1795 36.1454 34.7888 35.3129 33.9452C35.5303 35.0746 35.8472 35.8502 36.4561 36.4023C38.2331 40.4106 40.6563 44.2944 43.3404 47.7934C43.7567 48.2152 44.0425 48.8295 44.4588 49.2513C46.9938 51.1057 49.7897 52.5753 53.3622 53.7279C51.5418 51.2339 50.2059 48.6466 48.3171 46.6678C47.646 45.793 47.0061 45.0796 46.3351 44.2049C46.1424 44.0746 45.9188 43.7831 46.2108 43.5595C46.3723 43.5284 46.6954 43.4662 46.888 43.5964C47.1117 43.888 47.3043 44.0182 47.528 44.3098C49.6715 46.7416 51.9766 49.1423 54.0891 51.4127C54.5365 51.9959 54.8534 52.7715 55.8226 52.5848C55.9841 52.5537 56.2078 52.8453 56.2389 53.0067C57.2579 54.8184 58.8919 56.3443 60.2029 57.9324C61.3213 59.3903 62.4707 61.0096 63.4276 62.4986C63.6513 62.7902 63.9371 63.4044 64.4217 63.3111C65.2294 63.1556 65.5152 63.7699 65.77 64.2228C66.4659 66.0967 67.6153 67.7159 68.6032 69.3663ZM11.6725 59.0785C12.3435 59.9532 12.853 60.8591 13.6545 61.5414C16.9227 64.5932 20.3213 67.4526 24.6332 68.9649C30.5854 71.1653 36.2083 74.2657 41.9306 77.0123C45.7889 78.7792 49.2248 80.9621 52.6917 83.3064C54.04 84.2181 55.2267 85.1608 56.575 86.0725C59.433 87.8647 62.1917 90.0107 64.6583 92.3803C65.2672 92.9324 66.0687 93.6146 66.6776 94.1667C68.4732 95.6615 70.4304 97.1253 72.4186 98.7503C72.897 99.4948 73.5059 100.047 74.4068 100.375C73.8973 99.4695 73.5804 98.6939 72.8411 98.3343C71.3685 96.7773 70.188 94.9967 68.585 93.6321C64.1923 89.9602 60.0916 86.0647 56.0219 82.3305C54.0027 80.5441 52.1449 78.7266 49.7653 77.6789C48.8333 77.189 47.8703 76.5378 47.0998 76.0169C45.59 75.1363 43.9187 74.2869 42.2784 73.5988C40.1225 72.8426 38.097 71.8941 36.0404 70.7841C35.1085 70.2943 34.1765 69.8045 33.2445 69.3146C31.7658 68.5954 30.1566 68.0686 28.9388 66.9645C27.7521 66.0218 26.3044 65.4639 25.0183 64.8749C22.8313 63.9574 20.6753 63.2013 18.4883 62.2838C16.4628 61.3352 14.2758 60.4178 12.6417 58.8918C12.1633 58.1473 11.3929 57.6264 10.1378 57.1988C10.6163 57.9433 11.0947 58.6878 11.6725 59.0785ZM86.1695 176.252C85.1754 175.439 84.2124 174.788 83.4109 174.106C76.3838 168.933 70.1706 162.767 63.5349 157.017C59.72 153.736 55.4516 150.709 51.4751 147.459C50.8973 147.069 50.2884 146.516 49.4186 146.349C49.5429 146.995 49.9591 147.417 50.3754 147.838C53.2583 150.63 56.0108 153.614 58.9248 156.566C62.0935 159.972 65.5232 162.993 68.9529 166.013C71.1648 167.93 73.4761 169.493 75.688 171.41C78.4777 173.717 81.7582 175.093 85.1692 176.277C85.3618 176.407 85.7471 176.668 86.1695 176.252ZM114.488 120.601C114.687 119.893 114.724 119.217 114.792 118.702C115.227 116.61 115.5 114.549 116.097 112.427C116.364 111.204 116.662 110.143 116.768 108.951C116.842 107.598 116.917 106.245 117.507 104.96C118.296 102.968 118.377 100.777 118.812 98.6851C118.979 97.8162 118.762 96.6868 118.737 95.6876C118.706 95.5263 118.675 95.3649 118.352 95.4271C118.19 95.4583 118.029 95.4894 118.06 95.6507C117.929 95.8432 117.96 96.0045 117.861 96.3583C117.06 100.026 116.097 103.726 115.457 107.363C114.755 110.677 114.376 113.929 113.835 117.213C113.568 118.435 113.593 119.435 114.488 120.601ZM149.139 159.608C148.629 163.053 148.089 166.336 148.679 169.402C149.301 172.629 149.922 175.856 151.32 178.766C151.401 176.575 151.19 174.608 151.27 172.417C151.351 170.226 150.754 167.998 150.351 165.901C149.978 163.965 150.09 161.935 149.139 159.608ZM104.859 192.397C104.735 191.752 104.219 191.684 103.834 191.423C99.6833 189.88 95.6323 187.983 91.6124 186.247C90.3263 185.658 88.7171 185.131 87.3315 184.896C86.9774 184.797 86.5238 185.052 86.0765 184.469C87.9032 186.125 90.028 186.719 91.892 187.699C93.9485 188.809 96.0051 189.919 98.3226 190.644C100.447 191.239 102.572 191.834 104.859 192.397ZM85.1543 38.7377C82.5387 43.4246 80.7929 48.2785 80.3022 53.5601C82.5947 48.9355 84.8562 44.1496 85.1543 38.7377ZM82.2717 53.3482C81.3212 55.3718 80.5011 57.203 79.4884 58.904C78.9975 59.8351 78.6993 60.8965 78.5627 61.9268C78.3825 64.4713 78.0098 66.8857 77.8297 69.4302C77.8607 69.5916 77.8918 69.7529 78.1838 69.5294C78.3143 69.3369 78.5752 68.952 78.7057 68.7596C78.9045 68.052 79.2338 67.152 79.4015 66.283C79.9047 63.6762 80.3769 60.9081 81.0416 58.2702C81.2777 56.8861 81.3522 55.5332 82.2655 54.186C82.2345 54.0247 82.1723 53.702 82.2717 53.3482ZM83.8252 65.7658C83.6637 65.797 83.6637 65.797 83.5021 65.8281C83.4027 66.1819 83.3033 66.5356 83.2039 66.8894C82.7629 69.8189 82.5144 72.8786 82.0733 75.8081C81.9988 77.1611 82.2784 78.6132 82.8811 80.003C82.9122 80.1644 83.0737 80.1333 83.4278 80.2324C83.465 75.2055 83.7259 70.4701 83.8252 65.7658ZM110.184 200.91C112.47 201.473 114.632 201.392 116.888 201.794C118.789 202.097 120.149 201.333 121.448 200.246C118.093 200.223 114.738 200.2 111.252 200.369C111.091 200.4 110.575 200.332 110.184 200.91ZM66.1429 70.5094C65.9813 70.5405 65.8198 70.5716 65.8198 70.5716C65.8508 70.7329 65.7204 70.9254 65.7204 70.9254C66.963 73.0287 68.2057 75.1319 69.6099 77.2041C69.641 77.3655 69.964 77.3032 70.1566 77.4335C70.1566 77.4335 70.2871 77.241 70.256 77.0797C70.2312 76.0805 70.1752 74.92 69.2743 74.5915C68.535 74.2319 68.0876 73.6487 67.8018 73.0345C67.516 72.4202 67.2302 71.8059 66.7828 71.2228C66.7207 70.9001 66.3355 70.6396 66.1429 70.5094ZM110.308 192.854C112.656 193.74 114.781 194.335 117.329 194.514C113.762 192.523 112.346 192.127 110.308 192.854ZM96.1412 158.435C98.1233 160.898 100.534 162.107 103.274 162.416C102.311 161.765 101.186 161.145 99.9002 160.556C98.7756 159.936 97.7194 158.801 96.1412 158.435ZM59.445 60.0863C59.0225 60.5023 59.4077 60.7628 59.4388 60.9241C60.843 62.9963 62.0856 65.0996 63.4898 67.1717C63.5209 67.3331 63.7135 67.4633 63.7135 67.4633C63.9061 67.5936 64.1608 68.0465 64.4218 67.6616C64.5833 67.6305 64.4901 67.1465 64.2975 67.0162C63.117 65.2356 61.9365 63.455 60.787 61.8358C60.3707 61.414 59.9234 60.8308 59.445 60.0863ZM150.543 183.433C150.37 185.14 151.426 190.625 152.345 192.791C152.805 191.698 152.588 190.569 152.401 189.601C151.674 187.566 151.27 185.468 150.543 183.433ZM128.773 182.605C128.742 182.444 128.68 182.121 128.487 181.991C126.99 179.435 125.362 177.071 123.411 174.77C123.218 174.639 123.026 174.509 122.734 174.733C124.616 177.549 126.499 180.366 128.773 182.605ZM116.452 190.834C115.943 189.928 115.235 189.73 114.526 189.532C113.98 189.302 113.24 188.943 112.693 188.713C112.147 188.484 111.538 187.932 110.631 188.441C112.364 189.613 114.328 190.239 116.452 190.834ZM90.8035 121.146C90.2754 118.403 89.828 117.82 87.8709 116.356C88.6972 118.037 89.4925 119.558 90.8035 121.146ZM80.2838 69.125C80.2155 69.6401 79.9546 70.025 79.8862 70.5402C79.6191 71.7629 79.5135 72.9545 79.4079 74.1461C79.4389 74.3075 79.5011 74.6302 79.8242 74.5679C79.9857 74.5368 80.1472 74.5057 80.1162 74.3444L80.2466 74.1519C80.5821 72.4141 80.6256 70.8998 80.2838 69.125ZM120.87 195.505C120.901 195.667 120.74 195.698 120.771 195.859C122.864 196.292 124.958 196.726 127.214 197.128C127.375 197.097 127.568 197.227 127.829 196.842C127.282 196.613 126.704 196.222 126.058 196.347C125.25 196.502 124.542 196.304 123.834 196.106C122.771 195.808 121.74 195.672 120.87 195.505ZM123.938 103.554C124.006 103.039 124.205 102.332 123.95 101.879L123.757 101.749L123.596 101.78C123.105 102.711 122.807 103.772 122.701 104.964L122.925 105.255C123.086 105.224 123.248 105.193 123.248 105.193C123.832 104.746 123.869 104.07 123.938 103.554ZM155.838 217.887C156.44 219.276 157.304 220.281 158.621 221.032C158.18 219.611 156.993 218.668 155.838 217.887ZM122.622 194.164C121.852 193.643 121.466 193.382 121.112 193.283C120.534 192.893 119.988 192.663 119.41 192.273C119.217 192.142 118.894 192.205 118.925 192.366C118.956 192.527 119.018 192.85 119.211 192.98C119.981 193.501 120.976 194.314 122.622 194.164ZM115.271 128.147C116.252 126.285 115.78 124.702 115.793 123.027C115.103 124.666 115.414 126.279 115.271 128.147ZM97.6452 181.906C95.9428 180.895 95.9428 180.895 94.9425 180.921C95.744 181.603 96.2535 182.509 97.6452 181.906ZM109.81 159.819C110.257 160.402 110.705 160.986 111.152 161.569C111.345 161.699 111.345 161.699 111.475 161.507C111.444 161.345 111.575 161.153 111.413 161.184C111.127 160.57 110.68 159.986 109.81 159.819ZM84.7765 102.896C84.3353 101.475 84.3353 101.475 83.4034 100.986C83.5587 101.792 84.0061 102.375 84.7765 102.896ZM78.0413 93.1498C77.973 93.6649 78.1967 93.9565 78.4514 94.4094C78.644 94.5397 78.644 94.5397 78.8056 94.5086C78.936 94.3161 78.905 94.1548 78.905 94.1548C78.8118 93.6707 78.7186 93.1867 78.0413 93.1498ZM202.927 254.499C202.989 254.822 203.182 254.952 203.536 255.051L203.698 255.02C203.636 254.697 203.443 254.567 203.25 254.437C203.25 254.437 203.089 254.468 202.927 254.499ZM80.8186 97.1328C80.7876 96.9714 80.7565 96.8101 80.7254 96.6488C80.5639 96.6799 80.4024 96.711 80.4334 96.8723C80.303 97.0648 80.334 97.2261 80.4956 97.195C80.6571 97.1639 80.8186 97.1328 80.8186 97.1328ZM114.196 159.979C114.165 159.817 114.165 159.817 114.134 159.656C114.134 159.656 113.973 159.687 114.004 159.848C114.035 160.01 114.035 160.01 114.066 160.171C114.035 160.01 114.035 160.01 114.196 159.979Z" fill="#DCAB9B"/>
</svg>
