<svg width="263" height="483" viewBox="0 0 263 483" fill="none" xmlns="http://www.w3.org/2000/svg">
<path d="M126.407 382.856C134.121 375.427 138.868 368.889 140.648 363.837L137.978 362.946C136.198 367.7 131.747 373.644 124.33 380.776L126.407 382.856Z" fill="#8BBCBD"/>
<path d="M165.571 375.13L166.165 372.455C165.275 372.158 164.385 371.861 163.494 371.564C159.044 370.078 153.11 368.295 147.769 369.186L148.363 372.158C153.11 371.266 158.747 373.049 162.901 374.535C163.791 374.535 164.978 375.13 165.571 375.13Z" fill="#8BBCBD"/>
<path d="M131.45 395.337L132.044 392.662C123.439 390.285 110.681 387.908 101.483 392.662L102.967 395.337C111.571 390.879 123.439 393.256 131.45 395.337Z" fill="#8BBCBD"/>
<path d="M90.8021 402.469C97.923 393.851 102.67 381.964 104.45 377.507C104.747 376.615 105.044 376.318 105.044 375.724L102.374 374.535C102.077 374.832 102.077 375.427 101.78 376.318C99.9999 380.776 95.5494 392.068 88.7252 400.388L90.8021 402.469Z" fill="#8BBCBD"/>
<path d="M98.5164 417.03L100.297 414.652C95.2526 410.789 83.9779 406.035 77.1537 407.52L77.7471 410.492C82.7911 409.303 93.1757 413.167 98.5164 417.03Z" fill="#8BBCBD"/>
<path d="M46.2966 429.808C53.1208 422.379 56.6812 409.601 57.868 405.737L55.1977 405.143C54.3076 408.709 50.7472 420.893 44.5164 427.728L46.2966 429.808Z" fill="#8BBCBD"/>
<path d="M37.0988 436.048C43.0329 433.671 48.3735 434.265 53.7142 434.562C55.7911 434.86 57.868 434.86 59.9449 434.86V431.888C58.1647 431.888 56.0878 431.591 54.0109 431.591C48.6702 430.996 42.4395 430.402 35.912 433.077L37.0988 436.048Z" fill="#8BBCBD"/>
<path d="M11.2856 452.987C14.5493 449.123 16.6262 444.963 18.9999 440.803C21.6702 436.048 22.857 431.591 24.0438 427.133C24.6372 425.053 25.2306 422.676 26.1207 420.596L23.4504 419.704C22.5603 422.081 21.9669 424.162 21.3735 426.539C20.1867 430.996 18.9999 435.157 16.6262 439.317C14.2526 444.072 12.1757 447.638 9.20866 451.204L11.2856 452.987Z" fill="#8BBCBD"/>
<path d="M-0.879192 461.01C-0.879192 461.01 8.91201 456.255 27.901 459.821L28.4944 456.85C8.61532 453.284 -1.4726 458.038 -2.06601 458.335L-0.879192 461.01Z" fill="#8BBCBD"/>
<path d="M-33.5166 483C-25.2089 477.651 -16.6045 471.708 -7.40669 465.467C54.0109 424.162 130.857 372.752 191.978 354.922L191.088 352.248C129.374 370.375 52.5274 421.784 -9.1869 463.09C-18.3847 469.033 -26.9891 474.977 -35.2968 480.623L-33.5166 483Z" fill="#8BBCBD"/>
<path d="M7.72515 372.455C9.20867 372.752 10.0988 387.313 8.91195 405.44C7.72513 421.784 6.83503 431.591 -6.5166 450.015C-3.84627 435.751 -6.81331 422.973 -3.25287 408.412C0.01086 394.742 6.24164 372.455 7.72515 372.455Z" fill="#99C2C3"/>
<path d="M96.1428 328.772C97.923 329.663 95.2527 341.55 88.1318 362.649C81.6043 381.964 70.923 398.011 54.3076 409.601C54.901 392.068 62.3186 376.913 71.2197 361.163C79.5274 346.305 94.3625 327.88 96.1428 328.772Z" fill="#99C2C3"/>
<path d="M216.308 401.577C216.308 403.36 197.319 406.629 175.363 407.521C155.483 408.412 143.912 403.36 127 393.851C143.022 388.502 159.341 389.691 177.439 391.771C193.758 393.554 216.308 399.794 216.308 401.577Z" fill="#B4D9D7"/>
<path d="M42.4395 387.61C40.6593 397.12 32.945 420.596 23.4504 424.459C13.9559 414.058 22.857 396.228 28.1977 385.53C34.7252 372.158 37.3955 354.031 45.4065 341.253C48.3736 354.031 44.8131 375.13 42.4395 387.61Z" fill="#B4D9D7"/>
<path d="M167.945 340.659C162.901 348.682 147.472 367.998 137.385 368.592C132.341 355.517 146.879 341.847 155.483 333.824C166.461 323.72 175.363 307.376 186.934 298.461C185.154 311.239 174.472 329.961 167.945 340.659Z" fill="#B4D9D7"/>
<path d="M216.011 336.795C205.626 338.876 179.22 351.356 178.33 357.894C182.187 361.46 200.286 358.488 215.121 353.437C229.659 348.385 250.132 344.522 262.297 335.31C246.571 332.338 229.363 333.824 216.011 336.795Z" fill="#99C2C3"/>
<path d="M96.7362 450.312C86.3515 450.015 59.0548 443.774 56.0878 433.671C69.4395 420.596 89.912 429.511 101.187 433.374C115.428 438.425 135.901 437.534 148.956 444.072C133.824 450.015 110.385 450.312 96.7362 450.312Z" fill="#99C2C3"/>
<path d="M136.494 424.162C143.615 428.322 150.736 433.968 157.857 438.128C163.791 441.694 173.879 446.152 176.549 452.689C164.384 451.501 148.956 447.638 137.088 443.477C121.363 438.128 106.527 426.539 94.9559 414.355C109.198 414.652 123.143 416.733 136.494 424.162Z" fill="#B4D9D7"/>
<path d="M22.8571 457.741C37.3956 455.067 52.2307 456.255 67.0659 459.524C75.0769 461.307 82.7912 464.279 90.8022 465.765C96.1428 466.656 101.78 466.359 106.527 468.142C79.2307 480.029 46.2967 472.302 22.8571 457.741Z" fill="#B4D9D7"/>
<path d="M161.121 372.455C175.659 370.078 190.494 371.266 205.33 374.832C213.341 376.615 220.758 379.884 228.769 381.37C234.11 382.261 239.747 382.261 244.494 384.044C217.198 395.634 184.56 387.61 161.121 372.455Z" fill="#99C2C3"/>
<path d="M102.67 379.587C102.077 364.134 105.044 348.682 110.385 333.527C113.352 325.503 117.505 318.074 120.176 309.753C121.956 304.404 122.253 298.164 124.923 293.409C133.527 324.017 118.989 355.814 102.67 379.587Z" fill="#B4D9D7"/>
<path d="M-4.14294 351.951C31.4615 301.433 91.0988 200.1 92.2856 89.2578H89.6153C88.7252 199.506 29.0878 300.244 -6.21988 350.465L-4.14294 351.951Z" fill="#8BBCBD"/>
<path d="M89.0219 132.347C91.0988 129.672 92.8791 126.998 94.6593 124.026C95.8461 122.243 97.0329 120.163 98.2197 118.38L96.1428 116.894C94.6593 118.677 93.4725 120.757 92.2857 122.54C90.5054 125.215 88.7252 127.889 86.6483 130.564L89.0219 132.347Z" fill="#8BBCBD"/>
<path d="M83.0878 152.554L85.7581 151.959C85.1647 150.176 84.2746 147.799 83.3845 145.422C81.6043 140.667 79.5273 135.615 79.5273 131.752H76.857C76.5603 135.912 78.9339 141.559 80.7141 146.313C81.6043 148.691 82.4944 151.068 83.0878 152.554Z" fill="#8BBCBD"/>
<path d="M80.1208 176.921C81.901 175.138 86.3516 170.086 89.0219 169.789L88.7252 167.115C85.4615 167.412 81.6043 170.978 78.0439 175.138L80.1208 176.921Z" fill="#8BBCBD"/>
<path d="M85.1647 154.931C86.3516 151.662 88.7252 149.582 91.0988 147.205C92.2856 146.016 93.4724 144.827 94.6592 143.342L92.5823 141.559C91.3955 142.747 90.2087 144.233 89.0219 145.125C86.6483 147.502 83.9779 150.176 82.4944 153.742L85.1647 154.931Z" fill="#8BBCBD"/>
<path d="M78.934 181.379C79.2307 173.949 75.9669 165.332 73.2966 159.388L70.923 160.577C73.5933 166.223 76.5603 174.247 76.5603 181.379H78.934Z" fill="#8BBCBD"/>
<path d="M64.989 215.85L67.6593 215.552C66.7692 209.312 65.5824 203.369 61.4285 197.723L59.3516 199.208C63.2087 204.26 64.0989 209.906 64.989 215.85Z" fill="#8BBCBD"/>
<path d="M59.3516 234.571L59.945 233.382L61.1318 233.679C61.7252 232.491 69.7362 225.062 71.8132 223.576C74.7802 221.793 77.7472 219.713 80.7143 217.93C83.6813 216.147 86.945 214.067 89.912 212.284L88.4285 210.204C85.4615 212.284 82.4945 214.067 79.5274 215.85C76.5604 217.633 73.5934 219.713 70.6263 221.496C70.6263 221.496 58.4615 231.005 58.7582 233.382V234.274L59.3516 234.571Z" fill="#8BBCBD"/>
<path d="M36.2087 286.278C39.1758 282.117 37.0989 259.83 33.5384 248.835L31.1647 249.726C35.0219 261.613 36.2088 282.117 34.4285 284.495L36.2087 286.278Z" fill="#8BBCBD"/>
<path d="M43.0328 273.499C48.9669 268.448 59.3515 264.584 67.9559 263.693L67.6592 261.018C58.4614 261.91 47.7801 266.07 41.2526 271.419L43.0328 273.499Z" fill="#8BBCBD"/>
<path d="M25.2306 306.187C27.901 303.216 35.0219 299.947 39.1757 299.947V297.273C34.1318 297.273 26.4175 300.838 23.1537 304.404L25.2306 306.187Z" fill="#8BBCBD"/>
<path d="M13.0658 326.395C14.8461 319.263 15.1428 310.942 13.6593 304.107L10.9889 304.702C12.4724 311.239 12.1758 319.263 10.6922 325.8L13.0658 326.395Z" fill="#8BBCBD"/>
<path d="M79.824 1C81.6043 0.702837 88.1317 17.9384 93.1757 40.5228C97.6262 60.73 99.7031 72.9137 90.5054 100.253C88.7251 81.8286 80.4175 67.2676 79.5273 48.5462C78.3405 31.0136 78.0438 1.29716 79.824 1Z" fill="#99C2C3"/>
<path d="M0.307696 209.015C2.68132 208.718 7.72526 221.496 14.2527 246.16C20.4835 268.448 20.4835 290.438 12.1758 311.834C1.49451 294.895 -0.879134 275.877 -2.95605 255.075C-4.43957 236.057 -2.06593 209.312 0.307696 209.015Z" fill="#99C2C3"/>
<path d="M145.099 164.737C146.286 165.926 135.901 179.893 122.253 194.454C109.791 207.529 99.1098 211.689 81.901 216.147C89.0219 202.477 100.593 192.968 113.352 182.864C125.516 173.949 143.912 163.549 145.099 164.737Z" fill="#B4D9D7"/>
<path d="M70.6263 99.9556C74.7801 107.682 83.3845 128.186 79.2307 136.507C66.4724 134.724 62.3186 117.191 59.6482 106.79C56.3845 93.4179 47.4834 79.4512 45.4065 66.0789C54.901 73.2108 64.9889 90.1491 70.6263 99.9556Z" fill="#B4D9D7"/>
<path d="M116.319 167.709C109.494 170.681 91.3956 176.03 85.4615 170.978C89.022 159.388 103.857 157.605 112.462 156.417C123.736 154.931 136.495 148.393 147.473 148.393C140.352 156.714 125.22 163.846 116.319 167.709Z" fill="#B4D9D7"/>
<path d="M95.5494 248.538C89.3186 254.778 68.8461 267.556 60.5384 263.99C59.945 248.835 78.0439 241.406 87.2417 236.651C99.1098 230.708 110.681 217.93 122.549 213.769C117.802 225.953 103.857 240.514 95.5494 248.538Z" fill="#99C2C3"/>
<path d="M105.637 85.6917C109.791 79.4512 115.428 73.5079 119.582 67.2675C123.143 61.9185 127.89 53.0036 133.824 51.2206C131.747 62.2157 127.297 76.4796 123.143 86.8803C117.209 100.847 105.637 113.031 94.0658 122.243C94.6592 109.168 97.923 97.2811 105.637 85.6917Z" fill="#B4D9D7"/>
<path d="M69.1428 277.957C77.1538 275.877 86.3516 274.688 94.6593 272.608C101.483 270.825 111.868 266.665 118.692 269.636C109.198 277.362 95.2527 285.683 83.978 291.329C68.8461 298.758 49.8571 301.433 32.6483 300.838C42.7362 290.438 54.0109 282.117 69.1428 277.957Z" fill="#B4D9D7"/>
<path d="M40.956 177.218C38.2856 171.275 36.5054 164.44 33.8351 158.2C31.4615 153.148 27.0109 145.422 28.7911 140.073C36.2087 146.908 44.8131 157.308 50.7472 165.332C58.4615 176.327 62.6153 190.888 64.0988 203.666C54.3076 196.534 45.9999 188.213 40.956 177.218Z" fill="#B4D9D7"/>
<path d="M89.6153 146.313C96.7362 135.021 106.527 125.512 117.802 117.488C123.736 113.328 130.56 109.762 136.494 105.305C140.352 102.333 143.615 98.1726 147.769 96.0925C139.165 121.946 113.945 139.478 89.6153 146.313Z" fill="#99C2C3"/>
<path d="M33.8351 255.372C26.1208 243.486 21.3736 230.113 18.7033 215.85C17.2197 208.123 17.2197 200.397 15.4395 192.671C14.2527 187.619 11.8791 182.567 11.5824 177.813C32.3516 197.723 35.6154 229.519 33.8351 255.372Z" fill="#B4D9D7"/>
<path d="M73.2966 162.657C75.0768 152.256 59.6483 140.37 52.5274 134.427C43.3296 126.7 32.9449 124.917 23.7471 117.191C22.5603 126.403 38.5823 138.29 45.1098 143.639C53.1208 150.473 65.2856 157.903 73.2966 162.657Z" fill="#99C2C3"/>
<path d="M195.835 153.445C197.022 154.634 194.055 166.223 188.418 177.812C183.374 188.51 176.549 191.482 164.385 194.454C165.275 183.161 170.912 175.435 177.44 167.412C183.67 160.28 194.648 152.256 195.835 153.445Z" fill="#B4D9D7"/>
<path d="M167.352 234.571C172.692 232.788 178.923 231.896 184.56 230.113C189.011 228.628 197.022 226.25 201.769 227.736C195.835 233.085 186.341 241.109 178.923 244.972C168.835 250.618 156.67 250.618 145.099 250.618C151.033 243.783 157.264 237.84 167.352 234.571Z" fill="#99C2C3"/>
</svg>
