<svg width="88" height="114" viewBox="0 0 88 114" fill="none" xmlns="http://www.w3.org/2000/svg">
<path d="M28.6228 24.2469C27.5159 24.2071 16.0905 24.2071 7.27431 30.7657C7.27431 30.7657 14.4696 28.5398 23.2066 42.0544C23.2066 42.0544 27.674 40.9414 30.7972 40.9414C33.9204 40.9414 45.6621 41.7364 54.5573 55.4896C54.5573 55.4896 50.2085 42.3724 35.4623 33.7469C35.4623 33.7469 48.7853 36.7678 56.3759 53.1841C56.3364 53.2239 57.9968 25.2803 28.6228 24.2469ZM53.2922 56.523C45.2272 44.5189 35.8971 42.6507 31.1926 42.6507C8.89521 42.6507 0 65.0691 0 65.0691C4.86272 60.3389 14.5091 63.9164 16.5253 64.6716C30.9949 70.1172 33.446 69.9184 34.7506 69.9184C44.5156 69.9184 52.8573 59.3452 52.8573 59.3452C39.0994 49.885 25.1043 52.1904 25.1043 52.1904C38.3483 46.8243 53.2922 56.523 53.2922 56.523ZM72.071 30.9247C71.1617 7.19457 46.69 0 46.69 0C53.7666 5.12762 45.9784 27.705 45.9784 27.705C58.7875 35.8933 57.7991 52.2302 57.7991 52.2302C65.5083 37.682 62.0293 23.8096 62.0293 23.8096C68.3943 37.682 60.4875 52.5084 60.4875 52.5084C69.9362 44.3996 72.3082 36.6486 72.071 30.9247Z" fill="#99CA3C"/>
<path fill-rule="evenodd" clip-rule="evenodd" d="M56.6526 0.437195C56.6526 0.437195 74.2454 14.0711 74.2454 29.6527C74.2454 32.4351 75.4314 41.1799 59.9735 55.8075C58.3526 57.318 46.4132 68.3284 42.1831 73.2176C37.9529 78.1067 31.3902 86.136 31.3902 99.8494C31.3902 102.393 32.0228 109.31 34.2762 114C34.2762 114 32.7344 89.4352 57.5224 88.5607C61.6339 88.4017 65.706 90.0711 70.7268 90.0711C75.7477 90.0711 76.8151 87.3682 76.8151 84.9435C76.8151 81.5251 75.3919 79.9749 77.9616 79.2197C78.7918 78.9812 80.4918 78.8222 80.4918 77.3515C80.4918 75.841 78.3174 74.3305 79.622 73.8933C80.8871 73.4561 82.1127 72.9791 82.1127 71.9854C82.1127 70.4351 80.4918 68.8054 80.4918 67.2552C80.4918 66.5397 80.2941 65.2678 85.7103 63.6381C86.4615 63.3996 87.2522 62.9623 87.2522 61.1339C87.2522 59.9812 86.1057 58.7489 84.4452 56.5628C83.2987 55.0523 79.2267 50.0042 79.2267 43.9623C79.2267 42.1736 79.8197 39.3514 79.8197 34.8598C79.8197 32.2364 81.4802 9.49996 56.6526 0.437195Z" fill="#F06BA8"/>
</svg>
