<svg width="171" height="96" viewBox="0 0 171 96" fill="none" xmlns="http://www.w3.org/2000/svg">
<path d="M29.9707 70.0174C29.4102 71.0164 28.9006 71.8874 28.3911 72.6302C27.907 73.3731 27.4229 74.0135 26.9898 74.5771C27.7796 75.5505 28.5694 76.5239 29.3847 77.4974C30.1745 78.4708 31.0153 79.393 31.8561 80.2896C32.6969 81.1861 33.5886 82.0315 34.5058 82.8C35.423 83.5685 36.4167 84.2601 37.4613 84.8237C38.5059 85.3872 39.6524 85.8483 40.8499 86.1813C42.0473 86.5144 43.3467 86.6681 44.7735 86.6681C46.2257 86.6681 47.3977 86.4887 48.3149 86.1301C49.2322 85.7715 49.9455 85.336 50.4296 84.7724C50.9137 84.2345 51.2195 83.6197 51.3214 82.9793C51.4233 82.3389 51.3978 81.6985 51.194 81.0837C51.0156 80.4689 50.7099 79.9309 50.2513 79.4442C49.8182 78.9575 49.2831 78.6245 48.6971 78.4196C48.0856 78.2402 47.4232 78.2146 46.7098 78.3939C45.971 78.5732 45.2321 79.0087 44.4932 79.726L44.3658 79.4954C44.6461 79.2137 44.9773 78.9575 45.334 78.7013C45.6652 78.4964 46.0474 78.3171 46.4805 78.1634C46.9137 78.0097 47.4232 77.9072 47.9837 77.9072C48.9009 77.9072 49.7162 78.1378 50.4042 78.5733C51.0921 79.0087 51.6271 79.5723 51.9838 80.2383C52.3405 80.9044 52.4934 81.6216 52.4424 82.4157C52.3914 83.2098 52.0857 83.9271 51.5507 84.5931C50.9902 85.2591 50.1749 85.8227 49.0283 86.2582C47.9073 86.6937 46.4551 86.9242 44.6461 86.9242C43.0155 86.9242 41.5378 86.7705 40.1874 86.4631C38.8371 86.1557 37.6142 85.7202 36.4931 85.1823C35.3721 84.6444 34.3275 84.0039 33.4103 83.2611C32.4676 82.5182 31.6013 81.7241 30.7605 80.8531C29.9452 79.9822 29.1554 79.0856 28.442 78.1634C27.7032 77.2156 27.0153 76.2934 26.3019 75.3456C25.7668 75.9348 25.3082 76.3702 24.8751 76.7033C24.442 77.0363 24.0853 77.2668 23.7541 77.4205C23.4229 77.5742 23.1681 77.6511 22.9388 77.6767C22.7349 77.7023 22.5821 77.7023 22.4802 77.6767C22.4547 77.6767 22.4547 77.6767 22.4292 77.6511H22.4037C22.3018 77.6254 22.1999 77.5486 22.1235 77.4461C22.047 77.3437 21.9961 77.2156 21.9961 77.0875C21.9961 76.9338 22.047 76.7801 22.1744 76.6776C22.2763 76.5496 22.4292 76.4983 22.5821 76.4983C22.7349 76.4983 22.8623 76.5496 22.9897 76.6776C23.0916 76.7801 23.1681 76.9338 23.1681 77.0875C23.6267 77.0107 24.1108 76.7801 24.6203 76.4215C25.1299 76.0372 25.6395 75.5761 26.1235 75.0382C25.5885 74.3465 25.0789 73.6549 24.5439 72.9889C24.0089 72.3228 23.4738 71.6568 22.9388 71.0164C22.149 72.3485 21.3082 73.578 20.4164 74.7052C19.5247 75.8323 18.582 76.8057 17.5629 77.6254C16.5438 78.4452 15.4482 79.0856 14.2762 79.5723C13.1042 80.0334 11.8303 80.2639 10.4545 80.2639C8.64557 80.2639 7.06592 80.0334 5.74106 79.5979C4.4162 79.1624 3.32064 78.5733 2.45439 77.8304C1.58813 77.1131 0.951182 76.2678 0.543533 75.3456C0.135883 74.4234 -0.0424635 73.4756 0.0084927 72.5021C0.0594489 71.5287 0.339708 70.5809 0.84927 69.6587C1.35883 68.7365 2.0977 67.8912 3.06586 67.1739C4.03403 66.4567 5.20602 65.8675 6.60732 65.4064C8.00861 64.9709 9.63921 64.7404 11.4736 64.7404C12.5947 64.7404 13.6393 64.8428 14.6074 65.0734C15.5756 65.3039 16.5183 65.6113 17.3845 65.9956C18.2508 66.4054 19.0916 66.8665 19.8814 67.4301C20.6712 67.9937 21.4101 68.5828 22.149 69.2489C22.8623 67.84 23.5502 66.3798 24.2127 64.8428C24.8751 63.3058 25.5375 61.7945 26.2254 60.2319C26.8879 58.6949 27.5758 57.1835 28.2892 55.6721C28.9771 54.1864 29.7159 52.7519 30.4803 51.3942C31.2446 50.0365 32.0599 48.8069 32.9007 47.6542C33.767 46.5014 34.6842 45.5024 35.6523 44.6827C36.646 43.8373 37.6906 43.1969 38.8116 42.7102C39.9327 42.2235 41.1811 41.993 42.5059 41.993C43.9582 41.993 45.1811 42.1723 46.1493 42.5309C47.143 42.8895 47.9073 43.3506 48.4678 43.9142C49.0283 44.4777 49.4105 45.1438 49.5889 45.8867C49.7672 46.6295 49.7927 47.3724 49.6908 48.1409C49.5634 48.9094 49.3086 49.6523 48.9264 50.3951C48.5188 51.138 48.0347 51.7784 47.4487 52.3676C46.8627 52.9312 46.1748 53.4179 45.4104 53.7509C44.6461 54.1095 43.8308 54.2889 42.9646 54.2889C42.0219 54.2889 41.232 54.1608 40.5441 53.9046C39.8562 53.6484 39.3212 53.3154 38.9135 52.8543C38.5059 52.4189 38.2511 51.8809 38.1492 51.2405C38.0473 50.6257 38.0982 49.9341 38.3021 49.1656L38.404 49.268C38.2256 50.1646 38.2511 50.9587 38.4549 51.6247C38.5568 51.9321 38.7097 52.2139 38.8881 52.4957C39.0664 52.7775 39.3467 53.0336 39.6779 53.2386C40.0091 53.4691 40.4422 53.6484 40.9518 53.7765C41.4613 53.9046 42.0728 53.9815 42.7862 53.9558C43.6015 53.9302 44.3658 53.7765 45.1047 53.4435C45.8181 53.1105 46.4551 52.675 47.0156 52.1115C47.5761 51.5479 48.0347 50.9331 48.3914 50.2158C48.7481 49.5242 48.9774 48.8069 49.0793 48.0641C49.1812 47.3212 49.1302 46.6295 48.9519 45.9123C48.7736 45.2206 48.3914 44.6058 47.8563 44.0423C47.3213 43.5043 46.5824 43.0432 45.6652 42.7102C44.748 42.3772 43.6015 42.1979 42.2512 42.1979C41.1301 42.1979 40.0855 42.454 39.1428 42.9408C38.1747 43.4275 37.2829 44.1191 36.4422 44.9901C35.6014 45.861 34.7861 46.9113 34.0472 48.0897C33.3084 49.2936 32.5695 50.6001 31.8561 51.9834C31.1427 53.3923 30.4548 54.8524 29.7924 56.415C29.1299 57.952 28.442 59.5402 27.7541 61.1028C27.0662 62.691 26.3528 64.2537 25.6395 65.7906C24.9006 67.3276 24.1617 68.8134 23.3719 70.2223C23.9834 70.8371 24.5694 71.4775 25.1299 72.1179C25.6904 72.7839 26.2509 73.45 26.8369 74.1416C27.2446 73.6293 27.6267 73.117 28.0089 72.6046C28.3656 72.0923 28.6968 71.6056 28.9771 71.1957C29.3083 70.709 29.5886 70.2223 29.8688 69.7356L29.9707 70.0174ZM10.5055 80.0078C11.7539 80.0078 12.9004 79.7516 13.9705 79.2393C15.0406 78.727 16.0342 78.0097 16.9514 77.1131C17.8686 76.2165 18.7349 75.1407 19.5502 73.8854C20.3655 72.6559 21.1298 71.3238 21.8687 69.8893C21.2063 69.1976 20.4929 68.5828 19.754 68.0193C19.0151 67.4557 18.2253 66.969 17.3591 66.5591C16.5183 66.1493 15.6011 65.8163 14.6074 65.6113C13.6138 65.3808 12.5437 65.2783 11.3972 65.2783C9.74112 65.2783 8.26339 65.4832 7.01497 65.9187C5.76654 66.3286 4.69646 66.8922 3.85568 67.5838C2.98943 68.2754 2.35248 69.0695 1.89387 69.9405C1.46074 70.8115 1.20596 71.7337 1.15501 72.6558C1.10405 73.578 1.2824 74.4746 1.63909 75.3712C1.99578 76.2422 2.58178 77.0363 3.34612 77.7279C4.11047 78.4196 5.10411 78.9831 6.30158 79.393C7.52453 79.8028 8.90035 80.0078 10.5055 80.0078Z" fill="#F06BA8"/>
<path d="M36.5448 66.6872C36.0353 67.968 35.6021 69.172 35.22 70.2479C35.0671 70.709 34.9142 71.1445 34.7868 71.6056C34.634 72.0667 34.5321 72.4765 34.4301 72.8608C34.3282 73.245 34.2773 73.5524 34.2518 73.8342C34.2263 74.116 34.2263 74.2953 34.3028 74.3978C34.3537 74.5002 34.4556 74.5258 34.583 74.449C34.7104 74.3978 34.8633 74.2697 35.0161 74.116C35.169 73.9367 35.3474 73.7317 35.5257 73.4756C35.704 73.2194 35.9079 72.9632 36.0862 72.6814C36.5193 72.041 37.0034 71.2725 37.513 70.376L37.6913 70.5809C37.1563 71.4775 36.6467 72.2972 36.1372 73.0145C35.9334 73.3219 35.704 73.6293 35.4493 73.9367C35.22 74.2441 34.9652 74.5002 34.7614 74.7564C34.5321 74.9869 34.3028 75.1919 34.0989 75.3456C33.8696 75.4993 33.6913 75.6017 33.5129 75.6273C33.3091 75.653 33.1053 75.6273 32.9524 75.5761C32.7995 75.5249 32.6722 75.3712 32.6212 75.1663C32.5448 74.9613 32.5193 74.6795 32.5448 74.3209C32.5702 73.9623 32.6212 73.5268 32.7231 72.9889C32.29 73.783 31.8059 74.3978 31.2963 74.8845C30.7868 75.3712 30.3027 75.6273 29.8441 75.6273C29.5383 75.6273 29.2836 75.4993 29.1052 75.2687C28.9269 75.0382 28.7995 74.7052 28.7485 74.3209C28.6976 73.911 28.6976 73.4499 28.774 72.912C28.8504 72.3741 28.9778 71.7849 29.2071 71.1701C29.411 70.5553 29.6657 69.9917 29.9715 69.4282C30.2772 68.8902 30.5829 68.4035 30.9142 68.0192C31.2454 67.6094 31.6021 67.302 31.9333 67.0714C32.29 66.8409 32.5957 66.7128 32.9015 66.7128C33.3091 66.7128 33.5894 66.8921 33.7932 67.2764C33.9715 67.6606 34.0734 68.1729 34.048 68.7877C34.1754 68.4547 34.3028 68.1217 34.4301 67.7631C34.5575 67.4045 34.7104 67.0458 34.8633 66.6872H36.5448ZM30.6339 74.9357C30.7613 74.9357 30.9142 74.8589 31.0925 74.7308C31.2709 74.6027 31.4747 74.4234 31.6785 74.1672C31.8823 73.9367 32.0862 73.6549 32.3155 73.3219C32.5193 72.9888 32.7231 72.6302 32.9015 72.246C33.0034 71.8617 33.1053 71.4519 33.2582 70.9908C33.3855 70.5297 33.5639 70.043 33.7677 69.505C33.8441 68.8646 33.8441 68.3523 33.7422 67.9424C33.6403 67.5325 33.462 67.3276 33.2327 67.3276C33.0798 67.3276 32.9015 67.4301 32.7231 67.635C32.5448 67.8399 32.3409 68.0961 32.1371 68.4547C31.9333 68.7877 31.7295 69.1976 31.5256 69.6587C31.3218 70.1198 31.1435 70.6065 30.9651 71.1445C30.7868 71.6824 30.6339 72.1691 30.532 72.6302C30.4301 73.0913 30.3536 73.5012 30.3027 73.8342C30.2772 74.1672 30.2772 74.449 30.3282 74.6539C30.3536 74.8332 30.4556 74.9357 30.6339 74.9357Z" fill="#F06BA8"/>
<path d="M40.0353 66.6872C39.6532 68.173 39.3729 69.4794 39.1691 70.6321C39.0927 71.1188 39.0162 71.6056 38.9653 72.0923C38.9143 72.5534 38.8888 72.9888 38.9143 73.3475C38.9398 73.7061 38.9653 74.0135 39.0672 74.2441C39.1436 74.4746 39.2965 74.5771 39.5003 74.5771C39.6786 74.5771 39.857 74.5002 40.0863 74.3209C40.3156 74.1416 40.5449 73.9367 40.7742 73.6549C41.0035 73.3731 41.2583 73.0657 41.4876 72.6814C41.7169 72.3228 41.9462 71.913 42.1755 71.5031C41.8952 71.375 41.6405 71.1701 41.4366 70.8627C41.2328 70.5809 41.0545 70.2479 40.9526 69.8893C40.8506 69.5306 40.7742 69.172 40.7997 68.7878C40.7997 68.4035 40.8761 68.0705 41.029 67.7631C41.1819 67.4557 41.4112 67.1995 41.7169 66.9946C42.0226 66.7897 42.4303 66.6872 42.9144 66.6872C43.2201 66.6872 43.4494 66.7897 43.5513 67.0202C43.6787 67.2508 43.7297 67.5325 43.7042 67.9168C43.6787 68.2754 43.6023 68.7109 43.4494 69.172C43.2965 69.6587 43.1182 70.1454 42.8634 70.6578C43.1182 70.8115 43.3984 70.8114 43.7551 70.709C44.0864 70.6065 44.443 70.2991 44.8252 69.8124L45.0036 69.9405C44.5195 70.6577 44.0609 71.1445 43.6277 71.375C43.1946 71.6056 42.787 71.6568 42.4048 71.5543C42.0991 72.0923 41.7933 72.579 41.4366 73.0913C41.0799 73.578 40.7232 74.0391 40.3666 74.4234C40.0099 74.8076 39.6277 75.115 39.271 75.3199C38.9143 75.5505 38.5831 75.653 38.2519 75.6273C37.9207 75.6017 37.6659 75.4736 37.4875 75.1919C37.3092 74.9101 37.2073 74.5771 37.1563 74.1416C37.1054 73.7061 37.1054 73.245 37.1563 72.7071C37.2073 72.1691 37.2582 71.6312 37.3601 71.0676C37.5894 69.7612 37.9461 68.301 38.4557 66.6616H40.0353V66.6872ZM42.7615 67.1483C42.4303 67.1483 42.1755 67.2764 42.0226 67.5582C41.8698 67.8399 41.7933 68.1473 41.7933 68.506C41.7933 68.8646 41.8698 69.2489 41.9972 69.6331C42.15 70.0173 42.3284 70.2991 42.5831 70.5297C42.787 70.0942 42.9398 69.6843 43.0672 69.2745C43.1946 68.8646 43.2711 68.506 43.322 68.1986C43.3475 67.8912 43.322 67.635 43.2456 67.4301C43.1691 67.2508 42.9908 67.1483 42.7615 67.1483Z" fill="#F06BA8"/>
<path d="M51.5005 66.6872C50.9909 67.968 50.5578 69.172 50.1756 70.2479C50.0227 70.709 49.8699 71.1445 49.7425 71.6056C49.5896 72.0667 49.4877 72.4765 49.3858 72.8608C49.2839 73.245 49.2329 73.5524 49.2074 73.8342C49.182 74.116 49.182 74.2953 49.2584 74.3978C49.3093 74.5002 49.4113 74.5258 49.5386 74.449C49.666 74.3978 49.8189 74.2697 49.9718 74.116C50.1246 73.9367 50.303 73.7317 50.4813 73.4756C50.6597 73.2194 50.8635 72.9632 51.0419 72.6814C51.475 72.041 51.9591 71.2725 52.4686 70.376L52.647 70.5809C52.1119 71.4775 51.6024 72.2972 51.0928 73.0145C50.889 73.3219 50.6597 73.6293 50.4049 73.9367C50.1756 74.2441 49.9208 74.5002 49.717 74.7564C49.4877 74.9869 49.2584 75.1919 49.0546 75.3456C48.8253 75.4993 48.6469 75.6017 48.4686 75.6273C48.2647 75.653 48.0609 75.6273 47.908 75.5761C47.7552 75.5249 47.6278 75.3712 47.5768 75.1663C47.5004 74.9613 47.4749 74.6795 47.5004 74.3209C47.5259 73.9623 47.5768 73.5268 47.6787 72.9889C47.2456 73.783 46.7615 74.3978 46.252 74.8845C45.7424 75.3712 45.2583 75.6273 44.7997 75.6273C44.494 75.6273 44.2392 75.4993 44.0608 75.2687C43.8825 75.0382 43.7551 74.7052 43.7042 74.3209C43.6532 73.911 43.6532 73.4499 43.7296 72.912C43.8061 72.3741 43.9335 71.7849 44.1628 71.1701C44.3666 70.5553 44.6214 69.9917 44.9271 69.4282C45.2328 68.8902 45.5386 68.4035 45.8698 68.0192C46.201 67.6094 46.5577 67.302 46.8889 67.0714C47.2456 66.8409 47.5514 66.7128 47.8571 66.7128C48.2647 66.7128 48.545 66.8921 48.7488 67.2764C48.9272 67.6606 49.0291 68.1729 49.0036 68.7877C49.131 68.4547 49.2584 68.1217 49.3858 67.7631C49.5132 67.4045 49.666 67.0458 49.8189 66.6872H51.5005ZM45.5895 74.9357C45.7169 74.9357 45.8698 74.8589 46.0481 74.7308C46.2265 74.6027 46.4303 74.4234 46.6341 74.1672C46.838 73.9367 47.0418 73.6549 47.2711 73.3219C47.4749 72.9888 47.6787 72.6302 47.8571 72.246C47.959 71.8617 48.0609 71.4519 48.2138 70.9908C48.3412 70.5297 48.5195 70.043 48.7233 69.505C48.7998 68.8646 48.7998 68.3523 48.6979 67.9424C48.596 67.5325 48.4176 67.3276 48.1883 67.3276C48.0354 67.3276 47.8571 67.4301 47.6787 67.635C47.5004 67.8399 47.2966 68.0961 47.0927 68.4547C46.8889 68.7877 46.6851 69.1976 46.4813 69.6587C46.2774 70.1198 46.0991 70.6065 45.9208 71.1445C45.7424 71.6824 45.5895 72.1691 45.4876 72.6302C45.3857 73.0913 45.3093 73.5012 45.2583 73.8342C45.2328 74.1672 45.2328 74.449 45.2838 74.6539C45.3093 74.8332 45.4367 74.9357 45.5895 74.9357Z" fill="#F06BA8"/>
<path d="M64.6981 64.9965H56.2904C56.0865 65.3295 55.8572 65.6625 55.6534 65.9955C55.4496 66.3029 55.2458 66.636 55.0419 66.969C54.7617 67.7887 54.5579 68.4803 54.354 69.0951C54.1757 69.7099 54.0483 70.171 53.9464 70.4528C53.7426 71.1701 53.5897 71.7592 53.4878 72.246C53.3859 72.7327 53.3604 73.1169 53.3604 73.4499C53.3859 73.7573 53.4368 74.0135 53.5387 74.1672C53.6406 74.3209 53.819 74.449 54.0228 74.5258C54.1757 74.5771 54.3285 74.5771 54.5324 74.4746C54.7362 74.3977 54.94 74.2697 55.1693 74.0903C55.3986 73.911 55.6025 73.7061 55.8572 73.4499C56.0865 73.1938 56.3158 72.9376 56.5197 72.6558C57.0292 72.0154 57.5643 71.2725 58.0993 70.4528L58.2267 70.6577C57.5643 71.6568 56.9783 72.4765 56.4687 73.1169C55.9337 73.7573 55.4496 74.2697 55.0165 74.6283C54.5833 74.9869 54.1502 75.2687 53.7935 75.3968C53.4113 75.5505 53.0546 75.6273 52.698 75.6273C52.3413 75.6273 52.0865 75.4736 51.9336 75.1919C51.7807 74.9101 51.6788 74.5514 51.6533 74.116C51.6279 73.7061 51.6279 73.245 51.7043 72.7839C51.7807 72.3228 51.8572 71.8873 51.9846 71.5287C52.0355 71.4262 52.112 71.1701 52.2393 70.7858C52.3667 70.4016 52.5451 69.9405 52.7489 69.3513C52.9527 68.7877 53.182 68.1217 53.4368 67.3788C53.7171 66.636 53.9973 65.8418 54.3031 64.9965H48.3922V64.6891H54.4305C54.8636 63.5876 55.2967 62.4092 55.7808 61.2053C56.2649 60.0013 56.749 58.8229 57.2331 57.6702C57.7171 56.5175 58.2267 55.4416 58.7363 54.4169C59.2458 53.3922 59.7044 52.5213 60.163 51.7784C60.6216 51.0355 61.0293 50.4976 61.4115 50.1133C61.7936 49.7291 62.1248 49.601 62.4051 49.7291C62.7873 49.9084 62.9911 50.267 63.0421 50.7794C63.093 51.2917 62.9911 51.9321 62.7873 52.675C62.558 53.4179 62.2522 54.2632 61.7936 55.211C61.3605 56.1588 60.8509 57.1579 60.2904 58.1825C59.7299 59.2328 59.093 60.3087 58.4305 61.4102C57.7681 62.5117 57.1057 63.6132 56.4432 64.6635H64.6727V64.9965H64.6981ZM55.3477 66.0212C55.4496 65.8418 55.577 65.6881 55.6534 65.5088C55.7553 65.3551 55.8572 65.1758 55.9591 64.9965H55.6534L55.3477 66.0212ZM62.3542 50.2414C62.1503 50.1133 61.8955 50.2414 61.5898 50.6001C61.2841 50.9587 60.9529 51.5222 60.5707 52.2395C60.1885 52.9568 59.8063 53.8021 59.3987 54.8012C58.991 55.8002 58.5834 56.8505 58.1503 57.9776C57.7426 59.1047 57.335 60.2318 56.9273 61.3846C56.5197 62.5373 56.1375 63.6644 55.7808 64.7147H56.163C56.7999 63.6901 57.4624 62.6142 58.0993 61.5383C58.7363 60.4624 59.3223 59.4121 59.8828 58.4131C60.4433 57.3884 60.9274 56.4406 61.3605 55.5184C61.7936 54.6218 62.1248 53.8021 62.3796 53.0592C62.6344 52.342 62.7618 51.7272 62.7618 51.2405C62.7873 50.7538 62.6344 50.4207 62.3542 50.2414Z" fill="#F06BA8"/>
<path d="M63.2714 66.8153C63.679 66.9946 63.8828 67.2764 63.9338 67.635C63.9847 67.9937 63.9083 68.4035 63.7045 68.839C63.5007 69.2745 63.2204 69.71 62.8637 70.1454C62.507 70.5809 62.0994 70.9395 61.6662 71.2213C61.2331 71.5031 60.8 71.708 60.3923 71.7849C59.9592 71.8617 59.6025 71.7849 59.2968 71.5287C59.1694 71.9898 59.0675 72.4253 59.0165 72.8352C58.9656 73.245 58.9401 73.6293 58.991 73.9623C59.042 74.2953 59.1184 74.5515 59.2713 74.7564C59.4242 74.9613 59.628 75.0638 59.9082 75.0638C60.1121 75.0894 60.3669 75.0126 60.6216 74.8845C60.8764 74.7308 61.1567 74.5515 61.4369 74.3209C61.7172 74.0904 61.9975 73.8086 62.2777 73.5012C62.558 73.1938 62.8382 72.8864 63.093 72.5534C63.7045 71.8105 64.3669 70.9395 65.0293 69.9661L65.2077 70.1454C64.2905 71.5543 63.3987 72.7071 62.507 73.6293C62.1248 74.0391 61.7427 74.3978 61.335 74.7052C60.9274 75.0126 60.5197 75.2687 60.1376 75.4224C59.7299 75.5761 59.3477 75.6274 58.991 75.5761C58.6343 75.5249 58.2777 75.2943 57.9719 74.9357C57.5643 74.4746 57.3604 73.9111 57.3604 73.2706C57.335 72.6302 57.4624 71.9642 57.7171 71.2982C57.9719 70.6322 58.3031 69.9661 58.7617 69.3257C59.1949 68.6853 59.7044 68.1474 60.214 67.7119C60.749 67.2764 61.2841 66.9434 61.8191 66.7641C62.3287 66.6104 62.8128 66.6104 63.2714 66.8153ZM62.558 66.9434C62.3032 66.8665 62.0229 66.9434 61.7427 67.1739C61.4369 67.4045 61.1567 67.7119 60.8509 68.1217C60.5707 68.5316 60.2904 68.9927 60.0356 69.5306C59.7809 70.0686 59.5516 70.6065 59.3732 71.1701C59.6025 71.4775 59.9083 71.58 60.214 71.5031C60.5452 71.4263 60.8509 71.2469 61.1822 70.9652C61.4879 70.6834 61.7936 70.3248 62.0739 69.8893C62.3541 69.4538 62.558 69.0439 62.7108 68.6341C62.8637 68.2242 62.9401 67.8656 62.9147 67.5582C62.9401 67.2508 62.8128 67.0459 62.558 66.9434Z" fill="#F06BA8"/>
<path d="M66.4816 68.3779C66.2268 68.7365 65.9466 69.1464 65.6154 69.6075C65.2841 70.0686 65.0039 70.4785 64.7491 70.8627H64.4434C64.7746 70.3248 65.1058 69.8637 65.386 69.4538C65.6663 69.0439 65.9211 68.6853 66.1759 68.4035H65.9975C65.5899 68.4035 65.2841 68.3011 65.0548 68.0961C64.851 67.8912 64.7491 67.635 64.7491 67.3789C64.7491 67.0971 64.8765 66.8665 65.1313 66.636C65.386 66.4054 65.7682 66.303 66.2778 66.2517C66.8128 66.2261 67.0931 66.4054 67.1695 66.7641C67.246 67.1227 67.1186 67.5326 66.7873 67.968L68.4944 67.9937H68.5199C69.3606 67.9937 69.8702 68.2498 70.0231 68.7878C70.1759 69.3257 69.9466 70.2479 69.3861 71.58C69.3097 71.7849 69.2078 72.0667 69.0804 72.3997C68.953 72.7327 68.8766 73.0401 68.8001 73.3475C68.7492 73.6549 68.7237 73.9111 68.7492 74.116C68.7746 74.3465 68.8766 74.449 69.0549 74.4746C69.1568 74.4746 69.2842 74.4234 69.4371 74.2953C69.5899 74.1928 69.7428 74.0391 69.9212 73.8342C70.0995 73.6549 70.2778 73.4243 70.4562 73.1938C70.6345 72.9633 70.8129 72.7071 71.0167 72.4509C71.4498 71.8617 71.883 71.1701 72.3416 70.4016L72.4944 70.6065C71.9594 71.5543 71.4244 72.3997 70.8638 73.1426C70.6345 73.45 70.3798 73.7574 70.125 74.0648C69.8702 74.3722 69.6154 74.6283 69.3352 74.8845C69.0549 75.115 68.8001 75.32 68.5199 75.448C68.2396 75.6017 67.9848 75.653 67.7555 75.653C67.5517 75.653 67.3988 75.6017 67.3224 75.4737C67.2205 75.3456 67.1695 75.1919 67.144 74.987C67.1186 74.782 67.1186 74.5771 67.1695 74.3209C67.195 74.0648 67.246 73.8086 67.3224 73.5524C67.4753 72.9376 67.73 72.246 68.0358 71.4519C68.2651 70.8883 68.4689 70.4016 68.6473 70.0174C68.8256 69.6331 68.953 69.3257 68.9785 69.0695C69.0039 68.839 68.953 68.6597 68.8256 68.5572C68.6727 68.4548 68.418 68.4035 68.0103 68.4035H66.4816V68.3779ZM66.4561 66.5591C66.2523 66.5591 66.074 66.636 65.9466 66.7641C65.7937 66.9178 65.7173 67.0715 65.6918 67.2508C65.6663 67.4301 65.7173 67.5838 65.8192 67.7375C65.9211 67.8912 66.1504 67.9424 66.4816 67.9424C66.6345 67.7375 66.7364 67.5326 66.7873 67.3789C66.8383 67.1995 66.8638 67.0715 66.8383 66.9434C66.8128 66.8153 66.7873 66.7385 66.7109 66.6616C66.609 66.6104 66.5326 66.5591 66.4561 66.5591Z" fill="#F06BA8"/>
<path d="M79.2971 66.6872C78.7875 67.968 78.3544 69.172 77.9722 70.2479C77.8194 70.709 77.6665 71.1445 77.5391 71.6056C77.3862 72.0667 77.2843 72.4765 77.1824 72.8608C77.0805 73.245 77.0295 73.5524 77.0041 73.8342C76.9786 74.116 76.9786 74.2953 77.055 74.3978C77.106 74.5002 77.2079 74.5258 77.3353 74.449C77.4627 74.3978 77.6155 74.2697 77.7684 74.116C77.9213 73.9367 78.0996 73.7317 78.278 73.4756C78.4563 73.2194 78.6601 72.9632 78.8385 72.6814C79.2716 72.041 79.7557 71.2725 80.2652 70.376L80.4436 70.5809C79.9086 71.4775 79.399 72.2972 78.8894 73.0145C78.6856 73.3219 78.4563 73.6293 78.2015 73.9367C77.9722 74.2441 77.7174 74.5002 77.5136 74.7564C77.2843 74.9869 77.055 75.1919 76.8512 75.3456C76.6219 75.4993 76.4436 75.6017 76.2652 75.6273C76.0614 75.653 75.8576 75.6273 75.7047 75.5761C75.5518 75.5249 75.4244 75.3712 75.3735 75.1663C75.297 74.9613 75.2716 74.6795 75.297 74.3209C75.3225 73.9623 75.3735 73.5268 75.4754 72.9889C75.0423 73.783 74.5582 74.3978 74.0486 74.8845C73.5391 75.3712 73.055 75.6273 72.5964 75.6273C72.2906 75.6273 72.0359 75.4993 71.8575 75.2687C71.6792 75.0382 71.5518 74.7052 71.5008 74.3209C71.4499 73.911 71.4499 73.4499 71.5263 72.912C71.6027 72.3741 71.7301 71.7849 71.9594 71.1701C72.1632 70.5553 72.418 69.9917 72.7238 69.4282C73.0295 68.8902 73.3352 68.4035 73.6664 68.0192C73.9977 67.6094 74.3544 67.302 74.6856 67.0714C75.0423 66.8409 75.348 66.7128 75.6537 66.7128C76.0614 66.7128 76.3416 66.8921 76.5455 67.2764C76.7238 67.6606 76.8257 68.1729 76.8002 68.7877C76.9276 68.4547 77.055 68.1217 77.1824 67.7631C77.3098 67.4045 77.4627 67.0458 77.6155 66.6872H79.2971ZM73.3862 74.9357C73.5136 74.9357 73.6664 74.8589 73.8448 74.7308C74.0231 74.6027 74.227 74.4234 74.4308 74.1672C74.6346 73.9367 74.8384 73.6549 75.0677 73.3219C75.2716 72.9888 75.4754 72.6302 75.6537 72.246C75.7556 71.8617 75.8576 71.4519 76.0104 70.9908C76.1378 70.5297 76.3162 70.043 76.52 69.505C76.5964 68.8646 76.5964 68.3523 76.4945 67.9424C76.3926 67.5325 76.2142 67.3276 75.9849 67.3276C75.8321 67.3276 75.6537 67.4301 75.4754 67.635C75.297 67.8399 75.0932 68.0961 74.8894 68.4547C74.6856 68.7877 74.4817 69.1976 74.2779 69.6587C74.0741 70.1198 73.8957 70.6065 73.7174 71.1445C73.5391 71.6824 73.3862 72.1691 73.2843 72.6302C73.1824 73.0913 73.1059 73.5012 73.055 73.8342C73.0295 74.1672 73.0295 74.449 73.0805 74.6539C73.1059 74.8332 73.2078 74.9357 73.3862 74.9357Z" fill="#F06BA8"/>
<path d="M119.17 47.4492C119.756 46.2709 120.368 45.195 121.005 44.2216C121.642 43.2481 122.279 42.454 122.916 41.8392C123.553 41.2244 124.215 40.8658 124.852 40.7121C125.489 40.584 126.126 40.7633 126.763 41.2501C127.323 41.7112 127.553 42.1723 127.451 42.6333C127.349 43.0944 127.018 43.5555 126.457 44.0166C125.897 44.4777 125.158 44.9644 124.266 45.4255C123.349 45.9123 122.381 46.3733 121.336 46.8601C120.979 47.7054 120.572 48.602 120.189 49.5754C119.782 50.5488 119.374 51.5735 118.941 52.675C119.272 52.1883 119.68 51.7272 120.113 51.2661C120.546 50.805 121.056 50.3951 121.591 50.0365C122.126 49.6779 122.737 49.3961 123.4 49.1912C124.062 48.9862 124.776 48.8838 125.54 48.8838C126.686 48.8838 127.604 49.1399 128.291 49.6779C128.979 50.2158 129.438 50.8818 129.667 51.7016C129.897 52.5213 129.871 53.4179 129.616 54.3913C129.362 55.3647 128.877 56.2869 128.164 57.1835C127.451 58.0544 126.508 58.8486 125.336 59.5146C124.164 60.1806 122.737 60.6161 121.081 60.7954C122.763 60.9235 124.24 61.2053 125.489 61.6151C126.737 62.0506 127.807 62.5886 128.648 63.229C129.514 63.8694 130.177 64.6123 130.661 65.432C131.145 66.2517 131.425 67.1227 131.553 68.0192C131.68 68.9158 131.604 69.838 131.374 70.7858C131.145 71.7336 130.763 72.6302 130.228 73.5012C130.941 73.2194 131.604 72.7839 132.241 72.2203C132.878 71.6568 133.464 70.8627 133.999 69.9149L134.228 70.0429C133.616 71.1445 132.954 72.0154 132.215 72.6558C131.476 73.2962 130.686 73.7573 129.871 74.0391C129.285 74.8588 128.572 75.6273 127.731 76.3446C126.865 77.0618 125.897 77.6766 124.776 78.2146C123.654 78.7525 122.432 79.1624 121.081 79.4698C119.731 79.7772 118.279 79.9309 116.699 79.9309C114.61 79.9309 112.75 79.726 111.119 79.3161C109.489 78.9062 108.062 78.3427 106.839 77.651C105.82 78.3683 104.648 78.9319 103.323 79.2905C101.998 79.6747 100.444 79.854 98.6859 79.854C96.5203 79.854 94.6604 79.5723 93.1062 79.0343C91.5521 78.4708 90.2782 77.7535 89.2845 76.8313C88.2909 75.9347 87.5775 74.8845 87.1444 73.7317C86.7112 72.579 86.5074 71.4006 86.5584 70.171C86.6093 68.9671 86.9151 67.7631 87.4756 66.6103C88.0361 65.4576 88.8004 64.4073 89.7941 63.5108C90.7877 62.6142 92.0107 61.8713 93.412 61.3077C94.8387 60.7442 96.4439 60.488 98.2528 60.488C99.5012 60.488 100.597 60.6161 101.539 60.8723C102.482 61.1284 103.272 61.4614 103.909 61.8713C104.546 62.2812 105.03 62.7423 105.361 63.2546C105.692 63.7669 105.922 64.3049 105.998 64.8684H106.202C107.094 64.8684 108.011 65.0221 108.954 65.3551C109.896 65.6625 110.89 66.0724 111.909 66.5847C112.189 65.8162 112.47 65.0221 112.775 64.1768C113.081 63.3571 113.387 62.4861 113.718 61.5895L113.769 61.5383C113.973 60.8979 114.228 60.0525 114.584 59.0023C114.915 57.9776 115.323 56.8505 115.756 55.6209C116.189 54.4169 116.673 53.1361 117.209 51.8297C117.744 50.5232 118.304 49.268 118.89 48.0384L119.17 47.4492ZM98.7369 79.5979C100.367 79.5979 101.794 79.393 102.966 79.0087C104.138 78.6245 105.183 78.0097 106.126 77.2156C105.285 76.6776 104.571 76.114 103.96 75.4736C103.348 74.8332 102.839 74.1928 102.457 73.5012C102.049 72.8351 101.769 72.1691 101.565 71.4775C101.387 70.7858 101.285 70.1454 101.31 69.505C101.234 69.5306 101.183 69.5306 101.132 69.5306C101.081 69.5306 101.004 69.5306 100.953 69.5306C100.062 69.5306 99.3484 69.4282 98.8388 69.2232C98.3038 69.0183 97.9216 68.7877 97.6923 68.4803C97.4375 68.1729 97.3101 67.8399 97.2846 67.4813C97.2592 67.1227 97.3101 66.764 97.4375 66.4566C97.5649 66.1236 97.7178 65.8418 97.9471 65.6113C98.1509 65.3808 98.3802 65.2014 98.584 65.1502L98.635 65.2527C98.4566 65.3039 98.2783 65.432 98.0999 65.6369C97.9216 65.8418 97.7942 66.0724 97.6923 66.3542C97.5904 66.636 97.5649 66.9177 97.6159 67.2251C97.6413 67.5325 97.7942 67.8143 98.049 68.0705C98.3038 68.3266 98.6605 68.5316 99.17 68.7109C99.6541 68.8902 100.317 68.9671 101.157 68.9671H101.412C101.539 67.8912 101.947 66.9946 102.61 66.2517C103.297 65.5088 104.24 65.0734 105.489 64.9197C105.463 64.4073 105.31 63.895 105.03 63.3827C104.75 62.896 104.317 62.4349 103.756 62.0506C103.196 61.6408 102.457 61.3334 101.539 61.1028C100.648 60.8723 99.5777 60.7442 98.3038 60.7442C96.5458 60.7442 95.0171 61.026 93.6667 61.5639C92.3419 62.1018 91.2208 62.8191 90.3291 63.7157C89.4374 64.6123 88.7495 65.6113 88.3163 66.7384C87.8577 67.8655 87.6284 69.0183 87.6284 70.1966C87.6284 71.375 87.8577 72.5277 88.3163 73.6549C88.775 74.782 89.4629 75.781 90.4056 76.6776C91.3228 77.5742 92.4948 78.2914 93.896 78.8294C95.1954 79.3161 96.8515 79.5979 98.7369 79.5979ZM106.278 77.0362C106.813 76.5495 107.323 75.9603 107.782 75.3199C108.24 74.6795 108.699 73.9366 109.132 73.1425C109.565 72.3484 109.973 71.4775 110.38 70.5297C110.788 69.5819 111.196 68.5572 111.603 67.4557C110.508 66.8409 109.514 66.3286 108.571 65.9443C107.629 65.5345 106.813 65.3295 106.075 65.3295C106.075 65.8162 105.973 66.3029 105.794 66.7897C105.616 67.2508 105.31 67.6862 104.928 68.0449C104.546 68.4291 104.087 68.7365 103.527 68.9927C102.966 69.2488 102.329 69.4025 101.616 69.4794C101.565 70.0942 101.641 70.7346 101.794 71.4006C101.973 72.0666 102.227 72.7327 102.61 73.3987C102.992 74.0647 103.476 74.7051 104.087 75.3199C104.724 75.9347 105.438 76.4983 106.278 77.0362ZM101.667 68.9414C102.202 68.8902 102.686 68.7365 103.145 68.5316C103.578 68.301 103.985 68.0449 104.291 67.7119C104.622 67.3788 104.877 67.0202 105.055 66.6103C105.234 66.2005 105.361 65.7906 105.412 65.3551C104.342 65.4576 103.476 65.8675 102.839 66.5079C102.227 67.1739 101.82 67.9936 101.667 68.9414ZM113.157 68.3266C112.775 69.3001 112.368 70.2479 111.96 71.1188C111.552 72.0154 111.094 72.8351 110.61 73.6036C110.126 74.3721 109.591 75.0894 109.03 75.7554C108.47 76.4214 107.807 76.985 107.119 77.4973C108.317 78.1377 109.718 78.6501 111.272 79.0087C112.852 79.393 114.661 79.5723 116.699 79.5723C118.177 79.5723 119.502 79.4442 120.724 79.1624C121.947 78.8806 123.043 78.522 124.011 78.0609C124.979 77.5998 125.82 77.0362 126.534 76.4214C127.247 75.8066 127.858 75.115 128.342 74.3721C127.553 74.449 126.763 74.4234 125.922 74.2953C125.081 74.1672 124.24 73.9366 123.4 73.6549C122.533 73.3731 121.667 73.0145 120.801 72.579C119.935 72.1691 119.068 71.708 118.202 71.2469C117.336 70.7602 116.495 70.2735 115.629 69.7868C114.763 69.2745 113.947 68.7877 113.157 68.3266ZM114.941 63.3571C114.712 64.0487 114.457 64.7403 114.228 65.432C113.998 66.1236 113.743 66.764 113.514 67.4044C114.355 67.8655 115.221 68.3779 116.087 68.8902C116.954 69.4282 117.82 69.9405 118.686 70.4272C119.553 70.9395 120.419 71.4006 121.285 71.8617C122.151 72.3228 122.992 72.7071 123.833 73.0145C124.674 73.3218 125.489 73.578 126.279 73.7317C127.094 73.8854 127.858 73.9366 128.597 73.8598C129.107 72.9632 129.438 71.9898 129.616 70.9908C129.795 69.9917 129.769 69.0183 129.591 68.0449C129.413 67.0714 129.056 66.1749 128.521 65.3039C127.986 64.4329 127.298 63.6901 126.432 63.024C125.565 62.3836 124.546 61.8457 123.349 61.4614C122.151 61.0772 120.801 60.8723 119.298 60.8723L119.221 60.6929C120.47 60.6929 121.616 60.5136 122.61 60.1806C123.604 59.8476 124.47 59.4121 125.209 58.8742C125.948 58.3362 126.559 57.7214 127.069 57.0298C127.553 56.3381 127.935 55.6465 128.19 54.9036C128.444 54.1864 128.572 53.4691 128.597 52.7775C128.623 52.0858 128.495 51.471 128.291 50.9331C128.062 50.3951 127.731 49.9597 127.272 49.6266C126.839 49.2936 126.279 49.1143 125.591 49.1143C124.725 49.1143 123.909 49.2424 123.196 49.4729C122.482 49.7035 121.795 50.1134 121.183 50.6513C120.546 51.1892 119.96 51.9065 119.374 52.7775C118.814 53.6484 118.228 54.7499 117.642 56.0051C117.209 57.1579 116.775 58.3362 116.342 59.5658C115.909 60.7954 115.425 62.025 114.966 63.3058H114.941V63.3571ZM126.661 41.6599C126.304 41.2501 125.922 41.0964 125.514 41.1476C125.107 41.1988 124.699 41.4294 124.291 41.8649C123.858 42.3003 123.425 42.8895 122.967 43.658C122.508 44.4265 122.049 45.3487 121.54 46.399C122.432 45.9891 123.272 45.5792 124.062 45.195C124.826 44.7851 125.489 44.4009 125.973 44.0166C126.483 43.6324 126.788 43.2481 126.941 42.8383C127.12 42.4284 127.018 42.0442 126.661 41.6599Z" fill="#99CA3C"/>
<path d="M138.814 66.8153C139.221 66.9946 139.425 67.2763 139.476 67.635C139.527 67.9936 139.451 68.4035 139.247 68.839C139.043 69.2744 138.763 69.7099 138.406 70.1454C138.05 70.5809 137.642 70.9395 137.209 71.2213C136.776 71.5031 136.342 71.708 135.935 71.7848C135.502 71.8617 135.145 71.7848 134.839 71.5287C134.712 71.9898 134.61 72.4253 134.559 72.8351C134.508 73.245 134.483 73.6292 134.534 73.9622C134.585 74.2953 134.661 74.5514 134.814 74.7564C134.967 74.9613 135.171 75.0637 135.451 75.0637C135.655 75.0894 135.909 75.0125 136.164 74.8844C136.419 74.7307 136.699 74.5514 136.979 74.3209C137.26 74.0903 137.54 73.8085 137.82 73.5011C138.1 73.1938 138.381 72.8864 138.636 72.5533C139.247 71.8105 139.909 70.9395 140.572 69.9661L140.75 70.1454C139.833 71.5543 138.941 72.707 138.05 73.6292C137.667 74.0391 137.285 74.3977 136.878 74.7051C136.47 75.0125 136.062 75.2687 135.68 75.4224C135.272 75.5761 134.89 75.6273 134.534 75.5761C134.177 75.5248 133.82 75.2943 133.514 74.9357C133.107 74.4746 132.903 73.911 132.903 73.2706C132.878 72.6302 133.005 71.9642 133.26 71.2981C133.514 70.6321 133.846 69.9661 134.304 69.3257C134.737 68.6853 135.247 68.1473 135.756 67.7118C136.292 67.2763 136.827 66.9433 137.362 66.764C137.897 66.5847 138.355 66.6103 138.814 66.8153ZM138.126 66.9433C137.871 66.8665 137.591 66.9433 137.311 67.1739C137.005 67.4044 136.725 67.7118 136.419 68.1217C136.139 68.5316 135.858 68.9927 135.604 69.5306C135.349 70.0685 135.12 70.6065 134.941 71.1701C135.171 71.4774 135.451 71.5799 135.782 71.5031C136.113 71.4262 136.419 71.2469 136.75 70.9651C137.056 70.6833 137.362 70.3247 137.642 69.8892C137.922 69.4537 138.126 69.0439 138.279 68.634C138.432 68.2242 138.508 67.8655 138.483 67.5581C138.483 67.2507 138.355 67.0458 138.126 66.9433Z" fill="#99CA3C"/>
<path d="M147.324 66.6872C146.814 67.968 146.381 69.172 145.999 70.2479C145.846 70.709 145.693 71.1445 145.566 71.6056C145.413 72.0667 145.311 72.4765 145.209 72.8608C145.107 73.245 145.056 73.5524 145.031 73.8342C145.005 74.116 145.005 74.2953 145.081 74.3978C145.132 74.5002 145.234 74.5258 145.362 74.449C145.489 74.3978 145.642 74.2697 145.795 74.116C145.948 73.9367 146.126 73.7317 146.304 73.4756C146.483 73.2194 146.687 72.9632 146.865 72.6814C147.298 72.041 147.782 71.2725 148.292 70.376L148.47 70.5809C147.935 71.4775 147.425 72.2972 146.916 73.0145C146.712 73.3219 146.483 73.6293 146.228 73.9367C145.999 74.2441 145.744 74.5002 145.54 74.7564C145.311 74.9869 145.081 75.1919 144.878 75.3456C144.648 75.4993 144.47 75.6017 144.292 75.6273C144.088 75.653 143.884 75.6273 143.731 75.5761C143.578 75.5249 143.451 75.3712 143.4 75.1663C143.323 74.9613 143.298 74.6795 143.323 74.3209C143.349 73.9623 143.4 73.5268 143.502 72.9889C143.069 73.783 142.585 74.3978 142.075 74.8845C141.566 75.3712 141.081 75.6273 140.623 75.6273C140.317 75.6273 140.062 75.4993 139.884 75.2687C139.706 75.0382 139.578 74.7052 139.527 74.3209C139.476 73.911 139.476 73.4499 139.553 72.912C139.629 72.3741 139.757 71.7849 139.986 71.1701C140.19 70.5553 140.444 69.9917 140.75 69.4282C141.056 68.8902 141.362 68.4035 141.693 68.0192C142.024 67.6094 142.381 67.302 142.712 67.0714C143.069 66.8409 143.374 66.7128 143.68 66.7128C144.088 66.7128 144.368 66.8921 144.572 67.2764C144.75 67.6606 144.852 68.1729 144.827 68.7877C144.954 68.4547 145.081 68.1217 145.209 67.7631C145.336 67.4045 145.489 67.0458 145.642 66.6872H147.324ZM141.413 74.9357C141.54 74.9357 141.693 74.8589 141.871 74.7308C142.05 74.6027 142.253 74.4234 142.457 74.1672C142.661 73.9367 142.865 73.6549 143.094 73.3219C143.298 72.9888 143.502 72.6302 143.68 72.246C143.782 71.8617 143.884 71.4519 144.037 70.9908C144.164 70.5297 144.343 70.043 144.546 69.505C144.623 68.8646 144.623 68.3523 144.521 67.9424C144.419 67.5325 144.241 67.3276 144.011 67.3276C143.859 67.3276 143.68 67.4301 143.502 67.635C143.324 67.8399 143.12 68.0961 142.916 68.4547C142.712 68.7877 142.508 69.1976 142.304 69.6587C142.101 70.1198 141.922 70.6065 141.744 71.1445C141.566 71.6824 141.413 72.1691 141.311 72.6302C141.209 73.0913 141.132 73.5012 141.081 73.8342C141.056 74.1672 141.056 74.449 141.107 74.6539C141.107 74.8332 141.234 74.9357 141.413 74.9357Z" fill="#99CA3C"/>
<path d="M153.591 66.6872H155.324C154.814 67.968 154.381 69.172 153.999 70.2479C153.846 70.709 153.693 71.1445 153.54 71.6056C153.387 72.0667 153.26 72.4765 153.184 72.8608C153.082 73.245 153.031 73.5524 153.005 73.8342C152.98 74.116 152.98 74.2953 153.056 74.3978C153.107 74.5002 153.209 74.5258 153.336 74.449C153.464 74.3978 153.617 74.2697 153.77 74.116C153.922 73.9367 154.101 73.7317 154.279 73.4756C154.457 73.2194 154.661 72.9632 154.84 72.6814C155.273 72.041 155.757 71.2725 156.266 70.376L156.445 70.5809C155.91 71.4775 155.375 72.2972 154.865 73.0145C154.661 73.3219 154.432 73.6293 154.177 73.9367C153.948 74.2441 153.693 74.5002 153.489 74.7564C153.26 74.9869 153.031 75.1919 152.827 75.3456C152.598 75.4993 152.419 75.6017 152.241 75.6273C152.037 75.653 151.859 75.6273 151.706 75.5761C151.553 75.5249 151.451 75.3712 151.375 75.1663C151.298 74.9613 151.273 74.6795 151.273 74.3209C151.298 73.9623 151.349 73.5268 151.477 72.9889C151.018 73.783 150.534 74.3978 150.024 74.8845C149.515 75.3712 149.031 75.6273 148.572 75.6273C148.266 75.6273 148.037 75.5249 147.833 75.2943C147.655 75.0638 147.527 74.7564 147.451 74.3465C147.4 73.9367 147.4 73.4756 147.476 72.9376C147.553 72.3997 147.706 71.8105 147.91 71.1701C148.113 70.5297 148.343 69.9405 148.572 69.4025C148.801 68.8646 149.031 68.4035 149.209 67.9936C149.438 67.5325 149.642 67.0971 149.871 66.7128H151.527C151.298 67.1995 151.069 67.6862 150.84 68.1986C150.636 68.634 150.432 69.1208 150.203 69.6331C149.973 70.1454 149.795 70.6577 149.642 71.1445C149.489 71.6312 149.362 72.1179 149.234 72.579C149.133 73.0401 149.056 73.4243 149.005 73.783C148.954 74.1416 148.954 74.4234 149.005 74.6283C149.056 74.8332 149.158 74.9357 149.336 74.9357C149.617 74.9357 149.948 74.6795 150.381 74.1928C150.814 73.7061 151.222 73.0657 151.604 72.2716C151.782 71.5799 152.012 70.7858 152.343 69.8893C152.699 68.9927 153.107 67.9168 153.591 66.6872Z" fill="#99CA3C"/>
<path d="M168.47 64.9965H160.063C159.859 65.3295 159.655 65.6625 159.426 65.9955C159.222 66.3029 159.018 66.636 158.814 66.969C158.534 67.7887 158.33 68.4803 158.126 69.0951C157.948 69.7099 157.821 70.171 157.719 70.4528C157.515 71.1701 157.362 71.7592 157.26 72.246C157.158 72.7327 157.133 73.1169 157.133 73.4499C157.158 73.7573 157.209 74.0135 157.311 74.1672C157.413 74.3209 157.591 74.449 157.795 74.5258C157.948 74.5771 158.101 74.5771 158.305 74.4746C158.508 74.3977 158.712 74.2697 158.942 74.0903C159.171 73.911 159.375 73.7061 159.63 73.4499C159.859 73.1938 160.088 72.9376 160.292 72.6558C160.802 72.0154 161.337 71.2725 161.872 70.4528L161.999 70.6577C161.337 71.6568 160.751 72.4765 160.241 73.1169C159.706 73.7573 159.222 74.2697 158.789 74.6283C158.356 74.9869 157.922 75.2687 157.566 75.3968C157.184 75.5505 156.827 75.6273 156.47 75.6273C156.114 75.6273 155.859 75.4736 155.706 75.1919C155.553 74.9101 155.451 74.5514 155.426 74.116C155.4 73.7061 155.4 73.245 155.477 72.7839C155.553 72.3228 155.629 71.8873 155.757 71.5287C155.808 71.4262 155.884 71.1701 156.012 70.7858C156.139 70.4016 156.317 69.9405 156.521 69.3513C156.725 68.7877 156.954 68.1217 157.209 67.3788C157.489 66.636 157.77 65.8418 158.075 64.9965H152.164V64.6891H158.203C158.636 63.5876 159.069 62.4092 159.553 61.2053C160.037 60.0013 160.521 58.8229 161.005 57.6702C161.489 56.5175 161.999 55.4416 162.509 54.4169C163.018 53.3922 163.477 52.5213 163.935 51.7784C164.394 51.0355 164.802 50.4976 165.184 50.1133C165.566 49.7291 165.897 49.601 166.177 49.7291C166.56 49.9084 166.763 50.267 166.814 50.7794C166.865 51.2917 166.763 51.9321 166.56 52.675C166.33 53.4179 165.999 54.2632 165.566 55.211C165.133 56.1588 164.623 57.1579 164.063 58.1825C163.502 59.2328 162.865 60.3087 162.203 61.4102C161.54 62.5117 160.878 63.6132 160.215 64.6635H168.47V64.9965ZM159.145 66.0212C159.247 65.8418 159.375 65.6881 159.451 65.5088C159.553 65.3551 159.655 65.1758 159.757 64.9965H159.451L159.145 66.0212ZM166.152 50.2414C165.948 50.1133 165.693 50.2414 165.388 50.6001C165.082 50.9587 164.751 51.5222 164.368 52.2395C163.986 52.9568 163.604 53.8021 163.196 54.8012C162.789 55.8002 162.381 56.8505 161.948 57.9776C161.54 59.1047 161.133 60.2318 160.725 61.3846C160.317 62.5373 159.935 63.6644 159.579 64.7147H159.961C160.598 63.6901 161.26 62.6142 161.897 61.5383C162.534 60.4624 163.12 59.4121 163.681 58.4131C164.241 57.3884 164.725 56.4406 165.158 55.5184C165.591 54.6218 165.923 53.8021 166.177 53.0592C166.432 52.342 166.56 51.7272 166.56 51.2405C166.56 50.7538 166.432 50.4207 166.152 50.2414Z" fill="#99CA3C"/>
<path d="M169.77 70.4016L170.076 70.4272L160.368 92.7647C160.19 93.2002 160.012 93.5845 159.833 93.9175C159.68 94.1993 159.502 94.4554 159.273 94.686C159.044 94.9165 158.814 95.0446 158.559 95.0446C158.228 95.0446 158.024 94.8909 157.922 94.6091C157.821 94.3273 157.795 93.9431 157.872 93.4564C157.922 92.9697 158.05 92.4061 158.228 91.7657C158.407 91.1253 158.61 90.4593 158.865 89.742C159.094 89.0247 159.375 88.3075 159.63 87.5646C159.91 86.8217 160.165 86.1045 160.394 85.4384C160.547 84.9773 160.751 84.4138 161.005 83.7221C161.26 83.0305 161.54 82.262 161.846 81.4423C162.152 80.5969 162.483 79.726 162.84 78.7782C163.196 77.8304 163.553 76.9082 163.91 75.9604C164.267 75.0125 164.598 74.0904 164.954 73.1938C165.286 72.2972 165.617 71.4519 165.897 70.6578C165.566 71.2469 165.184 71.8361 164.802 72.4253C164.394 73.0145 164.012 73.5524 163.63 74.0135C163.247 74.4746 162.891 74.8589 162.56 75.1663C162.228 75.4736 161.948 75.6017 161.719 75.6017C161.413 75.6017 161.209 75.4993 161.082 75.2687C160.954 75.0382 160.878 74.7308 160.878 74.3209C160.878 73.911 160.954 73.4499 161.056 72.912C161.184 72.3741 161.362 71.7849 161.566 71.1445C161.795 70.5041 162.024 69.9149 162.254 69.3769C162.483 68.839 162.712 68.3779 162.891 67.968C163.12 67.5069 163.324 67.0715 163.553 66.6872H165.209C164.954 67.1739 164.7 67.6606 164.445 68.173C164.241 68.6084 164.012 69.0951 163.782 69.6075C163.553 70.1198 163.375 70.6321 163.222 71.1188C163.044 71.6056 162.891 72.0923 162.763 72.5278C162.61 72.9632 162.509 73.3731 162.432 73.7061C162.356 74.0391 162.305 74.3209 162.305 74.5258C162.305 74.7308 162.356 74.8332 162.483 74.8332C162.585 74.8332 162.814 74.6283 163.171 74.2441C163.502 73.8598 163.884 73.3731 164.292 72.7839C164.7 72.1947 165.107 71.5543 165.54 70.8883C165.948 70.2223 166.305 69.6075 166.56 69.0439C166.712 68.6853 166.814 68.3523 166.942 68.0449C167.044 67.7631 167.146 67.5069 167.222 67.2764C167.298 67.0202 167.4 66.7897 167.477 66.6104H169.184C168.904 67.2764 168.547 68.1473 168.088 69.2745C167.63 70.4016 167.095 71.6824 166.534 73.0657C165.974 74.4746 165.362 75.9604 164.725 77.5486C164.088 79.1368 163.477 80.6994 162.891 82.2364C162.305 83.799 161.744 85.2847 161.209 86.6936C160.674 88.1026 160.241 89.3578 159.884 90.4336C159.528 91.5095 159.298 92.3805 159.145 93.0209C159.018 93.6613 159.018 93.9687 159.171 93.9687C159.324 93.9687 159.68 93.3795 160.19 92.2268C160.725 91.0741 161.438 89.4346 162.33 87.3341C163.222 85.2335 164.292 82.7487 165.515 79.8541C166.763 77.0362 168.19 73.8598 169.77 70.4016Z" fill="#99CA3C"/>
<path d="M79.8831 16.5814C79.1697 16.5558 71.8065 16.5558 66.1249 20.7825C66.1249 20.7825 70.7619 19.348 76.3926 28.0576C76.3926 28.0576 79.2716 27.3403 81.2844 27.3403C83.2972 27.3403 90.8642 27.8527 96.5967 36.716C96.5967 36.716 93.7941 28.2625 84.2908 22.7038C84.2908 22.7038 92.8769 24.6506 97.7687 35.2302C97.7432 35.2558 98.8133 17.2474 79.8831 16.5814ZM95.7814 37.382C90.5839 29.6458 84.5711 28.4418 81.5392 28.4418C67.1695 28.4418 61.437 42.8895 61.437 42.8895C64.5708 39.8412 70.7874 42.1466 72.0868 42.6334C81.4118 46.1428 82.9914 46.0147 83.8322 46.0147C90.1253 46.0147 95.5012 39.2008 95.5012 39.2008C86.6348 33.104 77.6155 34.5898 77.6155 34.5898C86.1507 31.1316 95.7814 37.382 95.7814 37.382ZM107.884 20.885C107.298 5.59196 91.5266 0.955383 91.5266 0.955383C96.0872 4.25991 91.068 18.8101 91.068 18.8101C99.3229 24.087 98.6859 34.6154 98.6859 34.6154C103.654 25.2398 101.412 16.2996 101.412 16.2996C105.514 25.2398 100.418 34.7947 100.418 34.7947C106.508 29.569 108.036 24.5738 107.884 20.885Z" fill="#99CA3C"/>
<path fill-rule="evenodd" clip-rule="evenodd" d="M97.947 1.23715C97.947 1.23715 109.285 10.0236 109.285 20.0652C109.285 21.8584 110.049 27.494 100.087 36.9209C99.0426 37.8943 91.3482 44.9901 88.6221 48.1409C85.8959 51.2917 81.6665 56.4662 81.6665 65.3039C81.6665 66.9434 82.0742 71.4006 83.5264 74.4234C83.5264 74.4234 82.5328 58.5924 98.5076 58.0288C101.157 57.9264 103.782 59.0023 107.017 59.0023C110.253 59.0023 110.941 57.2603 110.941 55.6977C110.941 53.4947 110.024 52.4957 111.68 52.009C112.215 51.8553 113.31 51.7528 113.31 50.805C113.31 49.8316 111.909 48.8581 112.75 48.5764C113.565 48.2946 114.355 47.9872 114.355 47.3468C114.355 46.3477 113.31 45.2975 113.31 44.2984C113.31 43.8373 113.183 43.0176 116.673 41.9673C117.158 41.8136 117.667 41.5318 117.667 40.3535C117.667 39.6106 116.928 38.8165 115.858 37.4076C115.119 36.4342 112.495 33.1809 112.495 29.2872C112.495 28.1344 112.877 26.3157 112.877 23.421C112.877 21.7303 113.947 7.0777 97.947 1.23715Z" fill="#F06BA8"/>
</svg>
