<svg width="24" height="20" viewBox="0 0 24 20" fill="none" xmlns="http://www.w3.org/2000/svg">
<path d="M23.0771 1.01006C22.1195 1.68553 21.0593 2.20217 19.9371 2.54006C19.3349 1.84757 18.5345 1.35675 17.6442 1.13398C16.7539 0.911216 15.8166 0.967251 14.9592 1.29451C14.1018 1.62177 13.3656 2.20446 12.8501 2.96377C12.3347 3.72309 12.0648 4.62239 12.0771 5.54006V6.54006C10.3198 6.58562 8.57842 6.19587 7.00816 5.4055C5.43789 4.61513 4.08747 3.44869 3.07715 2.01006C3.07715 2.01006 -0.922852 11.0101 8.07715 15.0101C6.01768 16.408 3.56431 17.109 1.07715 17.0101C10.0771 22.0101 21.0771 17.0101 21.0771 5.51006C21.0762 5.23151 21.0494 4.95365 20.9971 4.68006C22.0178 3.67355 22.738 2.40277 23.0771 1.01006V1.01006Z" stroke="#F06BA8" stroke-width="1.5" stroke-linecap="round" stroke-linejoin="round"/>
</svg>
