<svg width="24" height="18" viewBox="0 0 24 18" fill="none" xmlns="http://www.w3.org/2000/svg">
<path d="M22.5394 3.42C22.4206 2.94541 22.1786 2.51057 21.838 2.15941C21.4974 1.80824 21.0701 1.55318 20.5994 1.42C18.8794 1 11.9994 1 11.9994 1C11.9994 1 5.11935 1 3.39935 1.46C2.9286 1.59318 2.50133 1.84824 2.1607 2.19941C1.82007 2.55057 1.57814 2.98541 1.45935 3.46C1.14457 5.20556 0.990587 6.97631 0.999351 8.75C0.98813 10.537 1.14212 12.3213 1.45935 14.08C1.59031 14.5398 1.83766 14.9581 2.17749 15.2945C2.51733 15.6308 2.93817 15.8738 3.39935 16C5.11935 16.46 11.9994 16.46 11.9994 16.46C11.9994 16.46 18.8794 16.46 20.5994 16C21.0701 15.8668 21.4974 15.6118 21.838 15.2606C22.1786 14.9094 22.4206 14.4746 22.5394 14C22.8517 12.2676 23.0057 10.5103 22.9994 8.75C23.0106 6.96295 22.8566 5.1787 22.5394 3.42V3.42Z" stroke="#F06BA8" stroke-width="1.5" stroke-linecap="round" stroke-linejoin="round"/>
<path d="M9.74939 12.02L15.4994 8.74998L9.74939 5.47998V12.02Z" stroke="#F06BA8" stroke-width="1.5" stroke-linecap="round" stroke-linejoin="round"/>
</svg>
